<svg width="14" height="16" viewBox="0 0 14 16" fill="none" xmlns="http://www.w3.org/2000/svg">
<path fill-rule="evenodd" clip-rule="evenodd" d="M8.59737 0V1.45442C8.59737 2.03301 8.37093 2.58792 7.96784 2.99704C7.56475 3.40618 7.01806 3.63603 6.448 3.63603V2.18162C6.448 1.60302 6.67444 1.04811 7.07753 0.638976C7.48062 0.229856 8.02733 0 8.59737 0Z" fill="#F35C56"/>
<path fill-rule="evenodd" clip-rule="evenodd" d="M12.2035 5.10123C10.4496 3.71299 8.47787 4.71289 6.80639 4.71289C5.13488 4.71289 3.16319 3.71008 1.4093 5.10123C-0.199154 6.37529 -0.732924 10.2382 1.43724 13.6531C3.51926 16.9256 5.61849 15.8187 6.80639 15.8187C7.99426 15.8187 10.0935 16.9293 12.1755 13.6531C14.3456 10.2382 13.8119 6.37529 12.2035 5.10123Z" fill="#F35C56"/>
<path fill-rule="evenodd" clip-rule="evenodd" d="M6.72835 7.20886C5.07674 7.20886 3.73804 8.56779 3.73804 10.2444C3.73804 11.4524 4.43498 12.4923 5.44129 12.9809L5.53488 11.145C5.53488 11.145 5.35883 11.0864 5.32029 11.0673C4.94688 10.9003 4.67561 10.4087 4.67561 9.77062C4.67561 9.07437 5.20755 8.47464 5.72183 8.46969C5.72248 8.46969 5.72248 8.46969 5.7229 8.46969C5.72312 8.46969 5.72355 8.46969 5.72376 8.46969C6.23815 8.47462 6.77011 9.07435 6.77011 9.77062C6.77011 10.4087 6.4985 10.9001 6.12585 11.0673C6.12294 11.0686 5.90956 11.1472 5.90956 11.1472L6.01409 13.1885C6.24346 13.2458 6.48195 13.2794 6.72876 13.2794C7.06161 13.2794 7.38038 13.2219 7.67944 13.1202L7.77207 11.301C7.52799 11.2465 7.31978 11.0888 7.18929 10.8909C7.02764 10.6451 7.31373 8.46949 7.31373 8.46949H7.49983V10.5111H7.68466V8.46971H7.8868V10.5115H8.07074V8.46971H8.28045V10.5115H8.46504V8.46971H8.60785C8.60785 8.46971 8.89395 10.6453 8.73209 10.8911C8.60289 11.0871 8.39664 11.2444 8.15558 11.3002C8.15126 11.3017 8.14735 11.3032 8.14735 11.3032L8.22784 12.868C9.11859 12.3423 9.71892 11.3656 9.71892 10.2444C9.71846 8.56781 8.37976 7.20886 6.72835 7.20886Z" fill="white"/>
</svg>
