<svg width="24" height="24" viewBox="0 0 24 24" fill="none" xmlns="http://www.w3.org/2000/svg">
<path fill-rule="evenodd" clip-rule="evenodd" d="M21.965 8.57495C21.604 13.821 16.384 18 10 18C9.53502 18 9.06902 17.974 8.60602 17.928C10.619 19.514 13.545 20.304 16.552 19.895L22 22.618V17.403C23.293 16.16 24 14.612 24 13C24 11.373 23.277 9.82195 21.965 8.57495Z" fill="#272459"/>
<path fill-rule="evenodd" clip-rule="evenodd" d="M10 0C4.477 0 0 3.582 0 8C0 9.797 0.75 11.45 2 12.785V18L6.833 15.584C7.829 15.85 8.892 16 10 16C15.523 16 20 12.418 20 8C20 3.582 15.523 0 10 0Z" fill="#272459"/>
</svg>
