<svg width="24" height="17" viewBox="0 0 24 17" fill="none" xmlns="http://www.w3.org/2000/svg">
<g id="Clipped">
<mask id="mask0_234_3803" style="mask-type:luminance" maskUnits="userSpaceOnUse" x="0" y="0" width="24" height="17">
<rect id="Rectangle" width="24" height="17" rx="2" fill="white"/>
</mask>
<g mask="url(#mask0_234_3803)">
<g id="Group">
<rect id="Rectangle_2" width="24" height="17" fill="#F1361D"/>
<path id="Shape" fill-rule="evenodd" clip-rule="evenodd" d="M8.63379 2.63582L9.4635 2.77607L10.0858 3.33792L10.2281 2.51512L10.7946 1.89802L9.96493 1.75692L9.34179 1.19507L9.20036 2.01787L8.63379 2.63582ZM10.8572 5.51477L11.5764 5.08042L12.4181 5.09997L11.9801 4.38682L11.9998 3.55212L11.2806 3.98562L10.4389 3.96692L10.8761 4.68007L10.8572 5.51477ZM9.88093 10.1753L9.17722 10.6343L9.16779 9.79877L8.70493 9.10092L9.54665 9.09157L10.2504 8.63257L10.2606 9.46727L10.7235 10.1651L9.88093 10.1753ZM10.4921 8.01632L11.3295 7.92452L12.0838 8.29512L11.9912 7.46467L12.3649 6.71667L11.5275 6.80847L10.7732 6.43787L10.8658 7.26832L10.4921 8.01632Z" fill="#FFDC42"/>
<path id="Path" fill-rule="evenodd" clip-rule="evenodd" d="M5.71455 6.99285L3.69941 8.41745L4.44255 6.07655L2.45312 4.61625L4.92855 4.59415L5.71455 2.26685L6.50055 4.59415L8.97512 4.61625L6.9857 6.07655L7.7297 8.41745L5.71455 6.99285Z" fill="#FFDC42"/>
</g>
</g>
</g>
</svg>
