<svg width="368" height="184" viewBox="0 0 368 184" fill="none" xmlns="http://www.w3.org/2000/svg">
<g filter="url(#filter0_d_0_1760)">
<path fill-rule="evenodd" clip-rule="evenodd" d="M17 36C17 24.9543 25.9543 16 37 16H324C335.046 16 344 24.9543 344 36V74C337.373 74 332 79.3726 332 86C332 92.6274 337.373 98 344 98V136C344 147.046 335.046 156 324 156H37C25.9543 156 17 147.046 17 136V98C23.6274 98 29 92.6274 29 86C29 79.3726 23.6274 74 17 74V36Z" fill="white"/>
</g>
<defs>
<filter id="filter0_d_0_1760" x="0" y="0" width="371" height="184" filterUnits="userSpaceOnUse" color-interpolation-filters="sRGB">
<feFlood flood-opacity="0" result="BackgroundImageFix"/>
<feColorMatrix in="SourceAlpha" type="matrix" values="0 0 0 0 0 0 0 0 0 0 0 0 0 0 0 0 0 0 127 0" result="hardAlpha"/>
<feOffset dx="5" dy="6"/>
<feGaussianBlur stdDeviation="11"/>
<feColorMatrix type="matrix" values="0 0 0 0 0 0 0 0 0 0 0 0 0 0 0 0 0 0 0.08 0"/>
<feBlend mode="normal" in2="BackgroundImageFix" result="effect1_dropShadow_0_1760"/>
<feBlend mode="normal" in="SourceGraphic" in2="effect1_dropShadow_0_1760" result="shape"/>
</filter>
</defs>
</svg>
