<svg width="119" height="59" viewBox="0 0 119 59" fill="none" xmlns="http://www.w3.org/2000/svg">
<path fill-rule="evenodd" clip-rule="evenodd" d="M119 33.5C119 47.5825 92.5852 59 60 59C27.4153 59 1 47.5825 1 33.5C1 19.4175 27.4153 8 60 8C92.5852 8 119 19.4175 119 33.5Z" fill="#C8C8D3"/>
<mask id="mask0_0_1771" style="mask-type:luminance" maskUnits="userSpaceOnUse" x="0" y="0" width="118" height="52">
<path fill-rule="evenodd" clip-rule="evenodd" d="M58.8178 0.276978C26.3338 0.276978 0 11.7953 0 26.0027C0 40.2108 26.3338 51.7291 58.8178 51.7291C91.3018 51.7291 117.636 40.2108 117.636 26.0027C117.636 11.7953 91.3018 0.276978 58.8178 0.276978Z" fill="white"/>
</mask>
<g mask="url(#mask0_0_1771)">
<path fill-rule="evenodd" clip-rule="evenodd" d="M58.8178 0.276978C26.3338 0.276978 0 11.7953 0 26.0027C0 40.2108 26.3338 51.7291 58.8178 51.7291C91.3018 51.7291 117.636 40.2108 117.636 26.0027C117.636 11.7953 91.3018 0.276978 58.8178 0.276978Z" fill="url(#paint0_linear_0_1771)"/>
</g>
<path fill-rule="evenodd" clip-rule="evenodd" d="M112.476 25.9427C112.476 38.4855 88.9438 48.6537 59.9152 48.6537C30.8872 48.6537 7.35474 38.4855 7.35474 25.9427C7.35474 13.3998 30.8872 3.23224 59.9152 3.23224C88.9438 3.23224 112.476 13.3998 112.476 25.9427Z" stroke="#92A2B1" stroke-width="2"/>
<path fill-rule="evenodd" clip-rule="evenodd" d="M117.668 26.3784C117.668 40.9444 91.3346 52.7521 58.8489 52.7521C26.3638 52.7521 0.0300293 40.9444 0.0300293 26.3784C0.0300293 26.285 0.0300293 26.1916 0.041006 26.0982C0.36482 40.2411 26.5663 51.6532 58.8489 51.6532C91.1315 51.6532 117.334 40.2411 117.657 26.0982C117.668 26.1916 117.668 26.285 117.668 26.3784Z" fill="#92A2B1"/>
<path fill-rule="evenodd" clip-rule="evenodd" d="M107.493 26.1734C107.192 24.5586 105.232 23.091 103.097 21.6899C101.593 20.7064 100.007 19.7613 98.8486 18.8273C96.6868 17.0855 91.8296 16.146 88.7616 15.4591C85.6936 14.7723 76.1103 14.2229 72.1488 13.9482C67.5984 13.635 62.8729 14.3218 58.3346 14.5855C53.7573 14.8547 49.1789 15.2723 44.6016 15.635L44.4731 15.6449L53.8791 12.9394L53.6596 11.9273L71.6362 10.7899L71.8261 9.93717L70.8601 8.6998L70.1335 7.77673L53.6519 8.97673L53.574 8.32398L53.5416 8.33002L53.5333 8.27343L52.4719 7.59376L52.0153 7.30145L28.1282 11.6569L28.0069 12.1866L27.9252 12.5295L27.907 12.5328L27.8 12.9993L12.8601 17.5251L12.5945 18.63L13.3074 19.3932L14.0423 20.1734L25.1557 16.9218L25.7962 17.6086C24.5465 18.0954 23.3275 18.7679 22.1432 19.7174C20.102 21.3657 13.1977 25.3493 16.3924 27.4097C19.5922 29.4701 22.2749 28.7833 22.5279 30.8438C22.7853 32.9042 19.3337 33.7284 21.1229 35.3767C22.9121 37.0251 22.8292 41.0086 43.1203 41.9701C66.2647 43.069 86.7248 42.2449 91.1984 41.0086C95.6769 39.7723 94.908 38.2613 96.8289 35.5141C98.7449 32.7668 101.051 33.8657 102.329 31.8053C103.608 29.7449 108.004 28.9207 107.493 26.1734Z" fill="#92A2B1"/>
<mask id="mask1_0_1771" style="mask-type:luminance" maskUnits="userSpaceOnUse" x="15" y="13" width="92" height="29">
<path fill-rule="evenodd" clip-rule="evenodd" d="M57.8715 14.1409C55.0337 14.305 52.2031 14.5299 49.3664 14.7597C47.6354 14.9014 45.9 15.0497 44.1695 15.1865C41.7052 15.3829 39.247 15.5641 36.7827 15.7009C33.4362 15.8863 30.2173 15.8103 27.1665 16.5873C26.0871 16.8603 25.0308 17.2433 24.0007 17.785C23.2401 18.179 22.4942 18.661 21.7604 19.252C19.7244 20.8929 12.8353 24.8605 16.023 26.9118C19.2156 28.9637 21.8924 28.2797 22.1448 30.3322C22.4011 32.3841 18.9577 33.2043 20.7429 34.8463C22.5276 36.4878 22.4449 40.4543 42.691 41.4124C65.7841 42.5067 86.1993 41.6854 90.6624 40.4543C95.131 39.2231 94.3643 37.719 96.281 34.9826C98.1922 32.2473 100.493 33.3416 101.769 31.2892C103.045 29.2378 107.431 28.4171 106.921 25.6807C106.62 24.0726 104.665 22.6116 102.534 21.2163C101.034 20.2369 99.4522 19.2958 98.2956 18.3656C96.1386 16.631 91.2922 15.6954 88.2315 15.0114C85.1703 14.3275 75.6083 13.7803 71.6551 13.5062C70.8397 13.4503 70.0193 13.4263 69.1946 13.4263C65.4281 13.4268 61.5871 13.9253 57.8715 14.1409Z" fill="white"/>
</mask>
<g mask="url(#mask1_0_1771)">
<path fill-rule="evenodd" clip-rule="evenodd" d="M57.8715 14.1409C55.0337 14.305 52.2031 14.5299 49.3664 14.7597C47.6354 14.9014 45.9 15.0497 44.1695 15.1865C41.7052 15.3829 39.247 15.5641 36.7827 15.7009C33.4362 15.8863 30.2173 15.8103 27.1665 16.5873C26.0871 16.8603 25.0308 17.2433 24.0007 17.785C23.2401 18.179 22.4942 18.661 21.7604 19.252C19.7244 20.8929 12.8353 24.8605 16.023 26.9118C19.2156 28.9637 21.8924 28.2797 22.1448 30.3322C22.4011 32.3841 18.9577 33.2043 20.7429 34.8463C22.5276 36.4878 22.4449 40.4543 42.691 41.4124C65.7841 42.5067 86.1993 41.6854 90.6624 40.4543C95.131 39.2231 94.3643 37.719 96.281 34.9826C98.1922 32.2473 100.493 33.3416 101.769 31.2892C103.045 29.2378 107.431 28.4171 106.921 25.6807C106.62 24.0726 104.665 22.6116 102.534 21.2163C101.034 20.2369 99.4522 19.2958 98.2956 18.3656C96.1386 16.631 91.2922 15.6954 88.2315 15.0114C85.1703 14.3275 75.6083 13.7803 71.6551 13.5062C70.8397 13.4503 70.0193 13.4263 69.1946 13.4263C65.4281 13.4268 61.5871 13.9253 57.8715 14.1409Z" fill="url(#paint1_linear_0_1771)"/>
</g>
<path fill-rule="evenodd" clip-rule="evenodd" d="M102.494 23.1259C102.373 25.0014 102.254 26.6405 101.004 29.0978C99.3837 32.2834 98.6226 33.6659 96.6018 34.3678C92.993 35.6176 89.5868 37.3286 85.9287 38.4747C79.8715 40.3721 73.1194 39.4843 66.8393 40.104C65.9565 40.1912 65.0645 40.2465 64.1664 40.274C62.3373 40.3398 60.4924 40.3124 58.6464 40.3069C57.3436 40.3008 56.0287 40.3124 54.7369 40.3666C47.913 40.6683 37.5307 40.6408 33.9926 33.4301C33.8014 33.0462 33.647 32.2291 33.5167 31.2914C33.4449 30.7595 33.3852 30.1946 33.336 29.6512C33.1821 28.1107 33.106 26.7178 33.106 26.7178V26.1256C33.0994 25.8898 33.0994 25.6534 33.1114 25.4231C33.1169 25.1544 33.1383 24.8802 33.1657 24.6175C33.1766 24.5024 33.1936 24.3927 33.2095 24.2825C33.2204 24.1892 33.2363 24.0966 33.2538 24.0083C33.3628 23.416 33.5326 22.8457 33.7839 22.3143C33.796 22.2973 33.8014 22.2814 33.8118 22.2534C34.7422 20.3182 36.7641 19.0349 38.5931 17.993C39.7146 17.3563 40.9309 16.7202 42.163 16.2985C42.7441 16.1005 43.3623 15.925 44.0025 15.772C48.5696 15.4101 53.1379 14.9933 57.705 14.7246C62.2333 14.4608 66.9483 13.7754 71.4886 14.0885C75.4418 14.3627 85.0038 14.9111 88.0645 15.5966C91.1257 16.282 95.9721 17.2192 98.1292 18.9576C99.2857 19.8904 100.867 20.8331 102.368 21.8147C102.456 22.4624 102.505 22.9504 102.494 23.1259Z" fill="#2B0906"/>
<path fill-rule="evenodd" clip-rule="evenodd" d="M52.0586 19.2048L26.7153 23.9648L26.1288 23.208L26.2115 22.868H26.1995L26.3205 22.3415L26.3364 22.3361L26.419 21.9961L26.5395 21.4641L28.3248 21.1406L27.8264 20.6086L27.8757 20.2631L27.8598 20.2686L27.9299 19.7312L27.9524 19.7257L27.9967 19.3748L28.0405 19.0677L26.0133 19.6599L25.28 18.8812L24.6004 18.1519L23.8337 18.3767C24.8638 17.8338 25.9207 17.4499 26.9995 17.1757C30.0503 16.397 33.2692 16.4738 36.6163 16.2873C39.0806 16.1502 41.5383 15.9693 44.0026 15.7719C45.733 15.6348 47.469 15.4867 49.1995 15.3441L30.329 20.7786L50.3719 17.1209L50.8264 17.4115L51.8883 18.0915L51.8937 18.1464L51.9271 18.1409L52.0586 19.2048Z" fill="#2B0906"/>
<path fill-rule="evenodd" clip-rule="evenodd" d="M32.4043 31.4749C32.4043 32.7242 30.0758 33.737 27.2019 33.737C24.3291 33.737 21.9995 32.7242 21.9995 31.4749C21.9995 30.2257 24.3291 29.2128 27.2019 29.2128C30.0758 29.2128 32.4043 30.2257 32.4043 31.4749Z" fill="#2B0906"/>
<path fill-rule="evenodd" clip-rule="evenodd" d="M36.8538 13.3096L12.9639 20.3015L12.2301 19.5228L11.8057 17.6681L34.7317 10.7047L36.8516 12.4376L36.8538 13.3096Z" fill="#FFAF50"/>
<path fill-rule="evenodd" clip-rule="evenodd" d="M36.8514 12.4377L12.2299 19.5228L11.5186 18.7606L11.7841 17.6583L34.7316 10.7048L35.6406 11.4445L36.8514 12.4377Z" fill="#FED161"/>
<path fill-rule="evenodd" clip-rule="evenodd" d="M33.6257 13.1939L12.3479 19.3172L11.7324 18.6586L32.5797 12.3362L33.6257 13.1939Z" fill="#FCDE63"/>
<path fill-rule="evenodd" clip-rule="evenodd" d="M49.3579 11.5734L25.468 18.5653L24.7342 17.7866L24.3098 15.932L47.2359 8.96857L49.3546 10.7015L49.3579 11.5734Z" fill="#FFAF50"/>
<path fill-rule="evenodd" clip-rule="evenodd" d="M49.3548 10.7015L24.7344 17.7867L24.022 17.0244L24.2887 15.9222L47.2361 8.96863L48.1451 9.7084L49.3548 10.7015Z" fill="#FED161"/>
<path fill-rule="evenodd" clip-rule="evenodd" d="M46.1289 11.4577L24.8511 17.5809L24.2356 16.9223L45.084 10.6L46.1289 11.4577Z" fill="#FCDE63"/>
<path fill-rule="evenodd" clip-rule="evenodd" d="M70.4297 10.9361L45.5902 12.5084L45.0453 11.5876L45.0371 9.68526L68.9303 7.92877L70.6191 10.085L70.4297 10.9361Z" fill="#FFAF50"/>
<path fill-rule="evenodd" clip-rule="evenodd" d="M70.6188 10.0851L45.0455 11.5877L44.5171 10.6878L45.0187 9.67051L68.9299 7.92828L69.655 8.85012L70.6188 10.0851Z" fill="#FED161"/>
<path fill-rule="evenodd" clip-rule="evenodd" d="M67.3054 10.114L45.2051 11.4126L44.7495 10.635L66.473 9.04742L67.3054 10.114Z" fill="#FCDE63"/>
<path fill-rule="evenodd" clip-rule="evenodd" d="M52.5357 9.54212L27.1947 14.2972L26.6104 13.5426L26.8973 12.3301L27.0178 11.8015L50.8524 7.45441L51.308 7.74615L52.3665 8.4245L52.5357 9.54212Z" fill="#FED161"/>
<path fill-rule="evenodd" clip-rule="evenodd" d="M51.0874 8.61987L26.6768 13.2038L26.7978 12.6757L50.6318 8.32867L51.0874 8.61987Z" fill="#FCDE63"/>
<path fill-rule="evenodd" clip-rule="evenodd" d="M52.5357 9.54208L27.1947 14.2971L26.6104 13.5426L52.4076 8.47491L52.5357 9.54208Z" fill="#FFAF50"/>
<path fill-rule="evenodd" clip-rule="evenodd" d="M51.5089 18.1107L26.1678 22.8657L25.5835 22.1111L25.8704 20.8987L25.9909 20.37L49.8255 16.0229L50.2811 16.3147L51.3397 16.993L51.5089 18.1107Z" fill="#FED161"/>
<path fill-rule="evenodd" clip-rule="evenodd" d="M50.0606 17.1884L25.6499 21.7724L25.7709 21.2443L49.6049 16.8972L50.0606 17.1884Z" fill="#FCDE63"/>
<path fill-rule="evenodd" clip-rule="evenodd" d="M51.5089 18.1107L26.1678 22.8657L25.5835 22.1112L51.3807 17.0435L51.5089 18.1107Z" fill="#FFAF50"/>
<path fill-rule="evenodd" clip-rule="evenodd" d="M52.7121 13.0815L27.9324 20.2105L27.2812 19.514L27.451 18.2802L27.5217 17.7428L50.8393 11.1621L51.3217 11.4089L52.4383 11.9847L52.7121 13.0815Z" fill="#FED161"/>
<path fill-rule="evenodd" clip-rule="evenodd" d="M51.1847 12.3001L27.314 19.1714L27.3846 18.634L50.7022 12.0533L51.1847 12.3001Z" fill="#FCDE63"/>
<path fill-rule="evenodd" clip-rule="evenodd" d="M52.7121 13.0815L27.9324 20.2105L27.2812 19.5141L52.4843 12.0308L52.7121 13.0815Z" fill="#FFAF50"/>
<path fill-rule="evenodd" clip-rule="evenodd" d="M101.262 22.5775C101.141 24.453 101.027 26.0921 99.7999 28.5495C98.2064 31.735 97.4622 33.1175 95.4737 33.8195C91.9312 35.0692 88.5847 36.7802 84.9929 37.9263C79.0397 39.8237 72.4086 38.9359 66.2424 39.5556C65.3717 39.6428 64.4944 39.6982 63.6133 39.7256C61.8176 39.7914 60.0045 39.764 58.1918 39.7585C56.9104 39.7525 55.6235 39.764 54.353 39.8183C47.6502 40.1199 37.4535 40.0925 33.9767 32.8817C33.7905 32.4978 33.6366 31.6807 33.5101 30.743C33.4395 30.2111 33.3798 29.6462 33.3305 29.1028C33.1821 27.5624 33.106 26.1695 33.106 26.1695V25.5772C33.0994 25.3414 33.0994 25.105 33.1114 24.8747C33.1169 24.606 33.1383 24.3318 33.1657 24.0691C33.1766 23.954 33.1936 23.8443 33.2095 23.7341C33.2204 23.6408 33.2363 23.5482 33.2538 23.4599C33.3573 22.8676 33.5276 22.2973 33.7735 21.7659C33.7839 21.7489 33.7905 21.733 33.8014 21.705C34.7154 19.7698 36.6978 18.4865 38.4945 17.4446C39.6002 16.8079 40.794 16.1718 42.0048 15.7501C45.1202 14.6533 49.4852 14.3457 51.3581 13.0959C51.4726 13.0186 51.5881 12.9473 51.7026 12.8815C51.8126 12.8157 51.9167 12.7614 52.0202 12.712C52.0426 12.7005 52.0585 12.6901 52.0799 12.6786C52.173 12.6347 52.2726 12.5914 52.3657 12.553C52.5081 12.4976 52.645 12.4483 52.7868 12.4044C52.9457 12.355 53.1099 12.3112 53.2748 12.2788C53.3564 12.2618 53.4385 12.2454 53.5261 12.2295C53.6083 12.213 53.6964 12.196 53.7841 12.1856C53.8717 12.1691 53.9593 12.1582 54.0524 12.1466C54.1455 12.1362 54.2386 12.1198 54.3317 12.1083C54.4516 12.0924 54.583 12.0808 54.7145 12.0649C54.8568 12.0485 55.0042 12.032 55.1586 12.015C55.3004 11.9991 55.4483 11.9827 55.6021 11.9657C56.106 11.9059 56.6749 11.8341 57.3315 11.7249C57.4964 11.697 57.6612 11.6696 57.8364 11.6372C58.0111 11.6098 58.1864 11.5763 58.3726 11.5379C58.5812 11.4946 58.7882 11.4562 59.0078 11.4228C59.2214 11.3849 59.441 11.3515 59.671 11.3191C59.8396 11.2972 60.0099 11.2698 60.1797 11.2533C60.4699 11.2144 60.7766 11.1766 61.0893 11.1431H61.0942C61.2037 11.1327 61.3138 11.1212 61.4283 11.1107C62.2442 11.0279 63.1149 10.9621 64.0295 10.8908C64.3312 10.864 64.6379 10.842 64.9489 10.8146C66.6476 10.6879 68.4822 10.5459 70.4092 10.3205C70.8917 10.2662 71.3785 10.2004 71.8714 10.1291C72.0521 10.1072 72.2328 10.0798 72.4135 10.0518C72.7207 10.0085 73.0214 9.96461 73.328 9.90923C73.7935 9.83849 74.265 9.7502 74.7409 9.66245C75.9456 9.43213 77.0737 9.1859 78.1476 8.95503C78.2511 8.9331 78.3442 8.91171 78.4428 8.88978C78.7714 8.81794 79.0945 8.74665 79.4121 8.68084C79.7297 8.60955 80.0418 8.54374 80.354 8.48397C80.8687 8.37923 81.3775 8.28107 81.8764 8.19332C82.1233 8.15439 82.3692 8.11052 82.6162 8.07816C82.7641 8.05623 82.9059 8.03374 83.0537 8.01729C83.2016 7.99536 83.3434 7.97945 83.4924 7.963C83.6348 7.946 83.7821 7.9301 83.9245 7.91913C86.2743 7.69374 88.5141 7.86978 90.9504 8.87881C91.515 9.10858 92.0626 9.3389 92.5933 9.55881H92.5987C92.6371 9.57526 92.6705 9.59116 92.7033 9.60268C92.8671 9.67397 93.0264 9.73978 93.1847 9.80558C93.5686 9.97558 93.9464 10.1346 94.3079 10.2986C94.5045 10.3869 94.6907 10.4746 94.8768 10.5569C95.1172 10.672 95.3483 10.7812 95.5783 10.8908C95.7207 10.9621 95.8576 11.0334 95.9945 11.0992C96.4052 11.3136 96.788 11.522 97.1549 11.7408C97.3357 11.8505 97.5109 11.9607 97.6812 12.0704C97.8285 12.1691 97.9709 12.2673 98.1078 12.3665C98.4643 12.6292 98.7868 12.8985 99.0661 13.1776C99.214 13.3262 99.3509 13.4792 99.4714 13.6383C99.6789 13.902 99.8547 14.1762 99.9861 14.4608C100.019 14.5382 100.052 14.6095 100.079 14.6857L100.222 15.1359C100.222 15.1359 100.222 15.1463 100.227 15.1628C100.239 15.2182 100.26 15.3766 100.298 15.6015V15.6295C100.304 15.6349 100.304 15.6349 100.298 15.6404L100.304 15.6454C100.419 16.3478 100.627 17.6859 100.825 19.007C101.065 20.6302 101.285 22.2211 101.262 22.5775Z" fill="#AD583E"/>
<path fill-rule="evenodd" clip-rule="evenodd" d="M100.512 18.6018C100.386 20.4772 100.271 22.1164 99.05 24.5737C97.4564 27.7593 96.7056 29.1418 94.7183 29.8437C91.1802 31.0935 87.8293 32.8044 84.2418 33.9506C78.2898 35.848 71.7879 36.0196 65.6272 36.6393C64.7565 36.7265 63.6738 36.726 62.7982 36.7534C60.996 36.8192 59.2545 35.7882 57.4364 35.7827C56.1605 35.7767 54.8736 35.7882 53.6031 35.8425C46.9545 36.1386 36.2737 36.8587 33.5334 29.0842C33.0718 27.7735 33.1057 25.5772 33.1057 25.5772C33.0991 25.3414 33.0991 25.1051 33.1112 24.8748C33.385 25.2592 33.7295 25.5992 34.0909 25.9172C34.1243 25.9551 34.1681 25.9885 34.2119 26.0269C34.5186 26.2792 34.8247 26.515 35.121 26.7453C36.1992 27.5948 37.1307 28.5934 38.3787 29.213C39.9285 29.9967 41.8014 30.2051 43.5543 30.3537C43.6304 30.3586 43.7021 30.3641 43.7728 30.3701C43.9973 30.386 44.2218 30.408 44.436 30.425C46.391 30.584 48.346 30.567 50.2949 30.6602C51.911 30.7376 54.5828 31.0885 57.2502 31.3956L57.3926 31.4115C57.4578 31.423 57.524 31.4285 57.5892 31.4335C59.473 31.6534 61.3404 31.8448 62.8354 31.9111C63.3885 31.9276 63.8923 31.933 64.3255 31.9111C66.4229 31.8069 70.3761 30.9405 74.0178 29.9589C74.7078 29.7719 75.3923 29.5805 76.0385 29.3885C77.309 29.0211 78.4814 28.6537 79.4398 28.3192C83.4921 26.9148 88.7931 25.5114 94.099 22.3851C98.5785 19.7534 99.2685 16.5453 99.4717 13.6383C99.6792 13.9021 99.8545 14.1763 99.9859 14.4609C100.019 14.6534 100.046 14.8398 100.074 15.0312C100.309 16.6544 100.534 18.2453 100.512 18.6018Z" fill="#773124"/>
<path fill-rule="evenodd" clip-rule="evenodd" d="M101.354 22.7147C101.233 24.5901 101.117 26.2293 99.8919 28.6866C98.2983 31.8722 97.553 33.2547 95.5657 33.9566C92.0221 35.2064 88.6767 36.9173 85.0838 38.0635C79.1317 39.9609 72.4995 39.073 66.3333 39.6927C65.4626 39.7799 64.5864 39.8353 63.7053 39.8627C61.9085 39.9285 60.0964 39.9011 58.2838 39.8956C57.0024 39.8896 55.7155 39.9011 54.445 39.9554C47.7422 40.257 37.5039 40.2943 34.027 33.083C33.8409 32.6991 33.6174 31.8097 33.4909 30.8719C33.5347 30.658 33.2921 29.6786 33.4121 29.4977C33.4783 29.3935 34.3337 33.0479 35.458 34.1057C36.5127 35.0989 39.0356 37.378 40.3225 38.0327C39.9435 37.4992 40.3685 35.2404 40.3685 35.2404C40.3685 35.2404 40.3203 38.16 41.3268 38.4901C41.979 38.7034 43.836 38.9178 44.4981 39.061C44.4154 38.88 44.1334 37.6801 44.0841 37.4877C43.9975 37.1482 43.9494 35.1022 43.9494 35.1022C43.9494 35.1022 44.9581 37.5502 45.0977 38.0327C45.8907 40.7747 48.0757 38.8795 48.7432 39.6094C48.3654 39.197 47.7602 35.8907 47.7602 35.8907C47.7602 35.8907 48.3068 36.9086 48.4979 37.3149C49.2125 38.829 50.4052 38.6371 51.8745 38.6217C53.5666 38.6036 55.2599 38.5515 56.9531 38.574C62.2103 38.6398 67.4072 38.058 72.6534 37.9434C76.5628 37.8551 80.8342 38.9359 84.6676 37.9977C86.3652 35.695 85.5898 34.3487 86.2688 31.7981C86.3071 31.6561 86.1073 30.7957 86.2113 30.8779C87.5256 31.9473 87.1428 33.7811 86.9183 35.2124C86.8088 35.8869 86.656 36.7424 86.3159 37.4438C86.3438 37.4279 86.3756 37.4218 86.4035 37.4059C86.8367 37.0714 87.2742 36.7534 87.7184 36.4402C87.3339 35.0808 88.0853 33.3747 88.5557 32.1853C88.6164 32.0257 88.8295 32.0153 88.8842 32.1853C89.1909 33.1006 89.2243 33.786 89.0047 34.7238C88.928 35.0418 88.8678 35.3769 88.7961 35.7054C89.4434 35.2777 90.1054 34.8664 90.7631 34.4611C90.664 33.6764 91.5172 33.0199 91.6048 32.2632C91.7193 31.2816 91.7538 29.2788 91.8304 29.3172C92.9914 29.8876 91.9816 32.8637 91.7078 34.3882C92.2767 34.0482 94.1354 32.4266 94.7109 32.0751C95.0619 31.8617 95.4113 31.6534 95.7678 31.4554C95.7678 31.0392 95.7185 30.6164 95.6692 30.1831C95.615 29.6408 95.4338 28.9992 95.8286 28.5599C95.8779 28.5056 95.9814 28.5056 96.0307 28.5599C96.4961 29.054 96.3817 30.068 96.3483 30.6992C96.3379 30.8527 96.3258 31.0002 96.3099 31.1543C96.6221 30.9783 96.9348 30.8034 97.2469 30.6279C97.2792 29.9254 97.3559 29.2076 97.4161 28.5325C97.4983 27.6282 97.5969 26.8276 98.3252 26.2238C98.4407 26.1256 98.6707 26.136 98.697 26.317C98.8564 27.3206 98.6319 28.3192 98.4845 29.3112C98.8673 28.0335 99.3114 26.7672 99.7167 25.5059C99.9571 24.7431 100.236 24.0796 100.685 23.5866C100.34 22.1279 100.428 20.4931 100.915 19.1441C101.156 20.7673 101.375 22.3582 101.354 22.7147Z" fill="#44110A"/>
<path fill-rule="evenodd" clip-rule="evenodd" d="M100.304 16.0569C100.27 16.7205 100.249 17.4059 100.183 18.1079C99.9368 20.8827 99.0825 23.8769 94.8499 26.3611C91.01 28.6259 87.1663 29.9859 83.8044 31.0997C82.5219 31.5214 81.3122 31.9053 80.1945 32.2946C79.2362 32.6297 78.0654 32.9971 76.7944 33.3645C76.1432 33.5559 75.4587 33.7479 74.7687 33.9349C74.4287 34.0281 74.0897 34.1158 73.7441 34.203C70.4091 35.0695 66.9761 35.7934 65.0753 35.8866C64.6432 35.9085 64.1449 35.903 63.5863 35.8866C62.9511 35.8592 62.2496 35.8104 61.5103 35.744C60.5082 35.6508 59.4239 35.5362 58.3402 35.4095C58.2739 35.404 58.2142 35.3991 58.1479 35.3875L58.0001 35.3716C57.7153 35.3382 57.4311 35.3058 57.1453 35.2724C54.7741 34.9927 52.4905 34.7076 51.0459 34.6363C49.7644 34.5765 48.4764 34.5595 47.1956 34.5156C46.528 34.4882 45.8594 34.4553 45.1907 34.4005C44.9728 34.384 44.7537 34.3621 44.5287 34.3462C44.4575 34.3401 44.3813 34.3346 44.3041 34.3292C43.181 34.2359 42.0047 34.1158 40.8979 33.8356C40.2846 33.6766 39.6883 33.4737 39.1297 33.1885C38.1823 32.7169 37.4096 32.0205 36.6216 31.3405C36.3746 31.1321 36.1287 30.9237 35.8763 30.7208C35.5811 30.4905 35.2684 30.2552 34.9667 30.0029C34.9229 29.964 34.8791 29.9311 34.8418 29.8927C34.6825 29.7556 34.5242 29.6136 34.3753 29.4595C33.9821 29.0509 33.6234 28.5908 33.4257 28.054C33.2023 27.4485 33.0949 26.7921 33.0544 26.1538C32.941 24.3896 33.2033 22.4725 34.1754 20.9611C34.4366 20.5559 34.8117 20.1632 35.1594 19.8287C35.597 19.4065 36.0827 19.0072 36.5822 18.659C37.2004 18.2285 37.8428 17.8227 38.4944 17.4443C39.6001 16.8082 40.7939 16.1721 42.0047 15.7498C45.1201 14.653 49.4852 14.3459 51.358 13.0962C51.4725 13.0188 51.588 12.9475 51.7025 12.8817C51.8125 12.8159 51.9166 12.7611 52.0201 12.7117C52.0425 12.7008 52.0584 12.6898 52.0798 12.6788C52.1729 12.635 52.2725 12.5916 52.3656 12.5527C52.508 12.4979 52.6449 12.4485 52.7868 12.4046C52.9456 12.3553 53.1098 12.3175 53.2747 12.2785C53.3563 12.2621 53.4384 12.2456 53.526 12.2297C53.6082 12.2127 53.6963 12.1963 53.784 12.1853C53.8716 12.1688 53.9592 12.1584 54.0523 12.1469C54.1454 12.1365 54.2385 12.1195 54.3316 12.1085C54.4515 12.0926 54.5829 12.0811 54.7144 12.0652C54.8568 12.0482 55.0041 12.0317 55.1585 12.0153C55.3003 11.9994 55.4482 11.9824 55.6021 11.9659C56.1059 11.9062 56.6748 11.8343 57.3314 11.7252C57.4963 11.6972 57.6611 11.6698 57.8363 11.6369C58.011 11.61 58.1863 11.5766 58.3725 11.5382C58.5811 11.4949 58.7881 11.4559 59.0077 11.423C59.1884 11.3901 59.3746 11.3627 59.5723 11.3358C59.6046 11.3298 59.6375 11.3243 59.6709 11.3188C59.8395 11.2969 60.0098 11.27 60.1796 11.253C60.4698 11.2146 60.7765 11.1768 61.0941 11.1434C61.2037 11.1329 61.3137 11.1214 61.4282 11.1105C62.2441 11.0282 63.1148 10.9624 64.0294 10.8911C64.3311 10.8637 64.6378 10.8417 64.9488 10.8143C65.4964 10.7759 66.0561 10.7321 66.6306 10.6827C67.8359 10.5895 69.1003 10.4743 70.4091 10.3208C70.787 10.2769 71.1709 10.2275 71.5537 10.1733C71.6572 10.1617 71.7678 10.1458 71.8713 10.1288C72.052 10.1069 72.2327 10.08 72.4134 10.0521C72.7206 10.0087 73.0213 9.96487 73.3279 9.90948C73.7934 9.83819 74.2649 9.75045 74.7408 9.66271C75.9456 9.43239 77.0737 9.18616 78.1475 8.95529C78.251 8.93336 78.3441 8.91197 78.4427 8.89003C78.5413 8.8681 78.6393 8.84616 78.739 8.82916C78.9624 8.77487 79.1869 8.72497 79.412 8.6811C79.7296 8.60981 80.0418 8.544 80.3539 8.48368C80.8687 8.37948 81.3774 8.28077 81.8763 8.19303C82.1232 8.15465 82.3691 8.11077 82.6161 8.07787C82.764 8.05594 82.9058 8.034 83.0537 8.01755C83.2015 7.99561 83.3433 7.97971 83.4923 7.96271C83.6347 7.94626 83.782 7.93036 83.9244 7.91884C86.2742 7.694 88.514 7.86948 90.9503 8.87852C91.3556 9.04303 91.7504 9.20755 92.1387 9.37261C92.2925 9.43239 92.4453 9.49819 92.5987 9.55852C92.637 9.57552 92.6704 9.59142 92.7033 9.60239C92.867 9.67368 93.0263 9.73948 93.1846 9.80584C93.5685 9.97529 93.9463 10.1343 94.3078 10.2988C94.5044 10.3866 94.6906 10.4743 94.8768 10.5571C95.1172 10.6723 95.3483 10.7814 95.5783 10.8911C95.6155 10.913 95.6544 10.9295 95.6927 10.9465C95.7967 11.0008 95.8959 11.0501 95.9944 11.0995C96.4052 11.3079 96.7934 11.5168 97.1548 11.7411C97.3356 11.8508 97.5108 11.9605 97.6811 12.0701C97.8284 12.1688 97.9708 12.2675 98.1077 12.3668C98.4691 12.624 98.7868 12.8878 99.066 13.1779C99.1263 13.2333 99.1816 13.293 99.2363 13.3534C99.296 13.4192 99.3563 13.4855 99.405 13.5513C99.8223 14.0388 100.107 14.5708 100.233 15.1575C100.265 15.3001 100.288 15.4487 100.298 15.6017V15.6511C100.309 15.7827 100.309 15.9198 100.304 16.0569Z" fill="#44110A"/>
<path fill-rule="evenodd" clip-rule="evenodd" d="M95.7259 15.8914C94.4789 15.3573 92.4177 16.2347 91.145 16.3526C90.8499 16.38 88.6901 16.6273 89.2251 15.7932C89.6572 15.1209 91.3597 15.0271 92.0475 14.8489C93.1619 14.5594 94.1301 14.0867 95.0999 13.4686C93.1181 11.2504 86.2313 17.5146 85.1103 14.6498C84.245 12.4382 90.0805 11.7193 91.288 11.4193C90.8176 11.5361 89.8828 11.1517 89.3001 11.2235C88.5756 11.3118 87.8889 11.5717 87.1929 11.7763C86.2904 12.0423 84.273 12.7908 83.595 11.7209C83.0129 10.8029 85.3781 9.66336 85.9662 9.48239C85.0139 9.10401 83.6432 9.09633 82.6235 9.28991C81.8569 9.43578 81.2331 9.8372 80.4725 10.101C78.7497 10.6987 77.155 11.1988 75.6984 12.3378C74.5922 13.2021 73.4214 14.0121 72.095 14.4963C70.6833 15.0118 69.1302 14.9728 67.7436 15.5602C67.0624 15.8492 66.4441 16.4019 65.6753 16.3773C65.7799 16.3806 67.483 15.0705 67.7447 14.9032C68.6998 14.295 68.6795 14.0236 68.7704 13.008C68.8164 12.4897 69.2649 12.0746 69.5908 11.6748C69.3438 11.9781 67.5235 12.3099 67.0487 12.5567C66.1758 13.0102 65.3418 13.5235 64.4486 13.9391C63.4782 14.3916 60.6312 15.8525 59.7758 14.4996C59.2868 13.7247 60.3661 12.6433 60.9844 12.3318C60.8064 12.3159 60.5764 12.3499 60.3754 12.3784C58.5393 12.6406 56.6697 12.8182 54.8521 13.1939C53.6863 13.4352 52.6715 14.0631 51.5829 14.5127C50.4498 14.9811 49.2489 15.1938 48.0529 15.4461C48.0135 15.4549 47.974 15.4637 47.9346 15.4713C45.6302 15.9391 44.4058 16.3745 42.2624 17.2859C43.8839 16.8171 44.7398 17.8744 46.3985 17.876C46.944 17.8766 48.1224 17.9089 48.5545 18.2527C49.5249 19.0227 47.6115 19.0375 46.9719 19.0446C45.7042 19.0572 44.5405 18.6448 43.3083 18.5533C42.1446 18.4672 40.8665 18.409 39.7598 18.8477C38.8699 19.2004 37.2024 20.4989 38.429 21.457C39.5298 22.3168 41.0412 21.7948 42.2711 21.61C43.4934 21.4263 44.9632 21.231 46.1351 21.7191C47.9494 22.4764 43.7322 24.1397 43.1703 24.2921C41.0165 24.8784 38.6547 24.7182 36.4954 24.2488C36.4932 24.2921 36.4888 24.3349 36.4866 24.3799C36.3125 27.266 39.3573 27.8227 41.6113 27.4953C42.6862 27.3395 43.7738 27.436 44.8548 27.4196C44.2261 27.5139 43.575 27.6751 42.9299 27.7037C41.5017 27.7667 36.8815 28.2981 39.0396 30.7324C40.1984 32.0397 42.7596 32.6013 44.3833 32.9715C45.3942 33.2012 46.6713 33.5588 47.715 33.3542C49.6273 32.9791 50.8124 31.1854 52.6042 30.5416C53.7679 30.1237 54.2897 30.6079 55.3275 30.7927C56.2694 30.9605 57.0245 30.3096 57.9029 30.0754C58.4555 29.9285 59.0568 30.071 59.6214 29.9641C57.8942 31.4376 55.2919 32.7872 53.0653 33.3054C52.9891 33.323 52.8928 33.3438 52.7964 33.3647C54.1282 33.0773 55.4375 33.6388 56.7677 33.658C58.3147 33.68 59.9351 32.638 61.3765 32.1664C62.1683 31.9059 62.9449 31.2144 63.7959 31.2632C63.8517 31.8017 62.6891 32.5086 62.6995 32.5711C62.8687 33.5588 61.1799 33.499 60.7681 34.1593C61.7554 34.5185 62.8633 34.4477 63.8988 34.479C64.4015 34.4938 64.8495 34.4987 65.2388 34.479C67.4058 34.3682 69.266 34.0293 70.9795 32.6978C71.664 32.167 72.4959 31.9328 72.9646 31.1892C73.2165 30.7889 73.2138 29.742 73.9323 29.9043C75.1327 30.1747 73.8348 31.6712 73.4756 32.1582C74.0894 31.9948 75.2203 31.4173 75.5368 32.258C76.66 32.0321 77.7579 31.6224 78.8395 31.2473C82.4855 29.9844 87.2537 28.7215 92.0229 25.9099C93.6926 24.9283 95.2369 23.565 96.0446 21.7652C96.6629 20.3849 97.0522 18.6136 96.682 17.1192C96.5194 16.459 96.1749 16.0839 95.7259 15.8914Z" fill="#722012"/>
<path fill-rule="evenodd" clip-rule="evenodd" d="M88.131 21.6789C88.2093 21.5188 88.2816 21.3537 88.3489 21.1848C88.7865 20.0831 89.4146 18.0744 88.074 17.294C86.2751 16.2466 84.1273 19.0198 82.1756 17.2847C81.7862 16.9387 79.6407 17.4152 79.0246 17.2633C77.6758 16.931 78.1506 16.2301 78.9485 15.3895C77.9452 15.2557 76.9185 14.3947 77.2525 13.2672C73.6234 14.6629 70.0037 17.6697 66.0816 18.1073C65.5329 18.1687 64.9738 18.1742 64.4432 17.9965C63.7438 17.7558 63.5264 17.35 62.7735 17.3719C62.2111 17.3878 61.704 17.6488 61.0956 17.5742C59.9894 17.4377 59.1362 16.7818 59.6613 15.5869C59.307 16.3914 56.2803 16.1731 55.5164 16.3168C54.0778 16.5871 52.4963 17.2458 51.1656 17.8545C51.8375 17.8748 52.1184 18.8794 52.0451 19.4453C51.906 20.5098 50.9109 20.7598 50.032 21.0088C50.2812 20.9381 50.4487 22.6424 50.417 22.8229C50.3102 23.4135 49.9176 23.9229 49.4395 24.269C49.8349 23.9821 50.6798 25.4831 50.7143 25.7512C50.7998 26.4153 50.4707 26.9325 49.9493 27.2982C48.8908 28.0419 47.5464 28.009 46.3975 28.5321C50.894 30.3758 55.2366 25.0186 59.8278 27.3876C61.3502 28.1735 60.2517 29.7802 59.1542 30.3423C60.5961 30.9033 61.7138 29.0037 63.1146 29.0789C62.9788 29.6903 62.3469 30.0506 62.0988 30.6017C64.5587 30.7717 67.2168 29.4962 69.1976 28.1411C70.6187 27.1694 76.8664 23.5752 76.0554 28.0095C77.7339 27.6454 79.4063 26.9626 81.0568 26.4652C83.8601 25.6207 86.7641 24.479 88.131 21.6789Z" fill="#892E1B"/>
<path fill-rule="evenodd" clip-rule="evenodd" d="M64.9491 10.8145C64.638 10.8419 64.3308 10.8639 64.0291 10.8913C63.1145 10.9626 62.2444 11.0284 61.4279 11.1106C61.3134 11.1216 61.2033 11.1326 61.0944 11.1435H61.0889C60.7768 11.1764 60.4695 11.2143 60.1798 11.2532C60.0095 11.2697 59.8398 11.2971 59.6706 11.319C59.6377 11.3245 59.6043 11.3294 59.5725 11.3355C58.658 11.5987 57.6055 11.812 56.7134 12.3823C55.5585 13.1232 53.466 12.6022 52.1901 13.4248C50.9913 14.2035 49.7203 14.9768 48.4991 15.7829C47.9356 16.1558 48.4991 18.2397 47.9356 18.6126C46.7741 19.3858 44.392 18.5736 43.1982 19.4571C42.0263 20.3181 41.8894 22.5884 40.7662 23.4652C39.5669 24.409 38.0785 24.8971 37.032 25.7581C35.7336 26.8274 35.3283 28.659 34.4363 29.4213C34.4193 29.4377 34.3979 29.4542 34.3755 29.4597C34.5239 29.6132 34.6822 29.7558 34.8415 29.8929C34.8793 29.9307 34.9231 29.9642 34.9669 30.0026C35.2687 30.2548 35.5808 30.4906 35.876 30.721C36.1284 30.9239 36.3743 31.1322 36.6213 31.3406C37.5851 30.5126 38.7351 29.0977 40.35 28.0393C41.8346 27.0687 43.8937 26.6739 45.4593 25.6094C47.1191 24.4858 48.8113 23.4652 50.142 22.4842C50.9355 21.8974 51.2148 20.4442 52.1293 19.7587C53.2032 18.9471 55.3334 19.3803 56.4779 18.5084C57.617 17.6359 58.5808 16.5232 59.6481 15.7006C60.9027 14.73 61.4941 13.1117 62.4251 12.3939C63.7728 11.3464 65.6402 11.1984 66.6302 10.6829C66.0558 10.7322 65.4967 10.7761 64.9491 10.8145ZM100.298 15.6507V15.6403C100.304 15.6348 100.304 15.6348 100.298 15.6293V15.6014C100.287 15.4484 100.265 15.3003 100.233 15.1577C100.107 14.571 99.8225 14.039 99.4053 13.551C99.3067 13.8416 99.1698 14.0933 98.9239 14.2145C98.5625 14.39 97.7739 13.2439 97.539 13.5729C96.3441 14.4388 96.3172 16.5122 94.9427 17.4939C93.6443 18.4261 91.9856 18.9197 90.6987 19.819C89.2858 20.8111 88.5684 22.7035 87.3746 23.4987C86.137 24.3268 83.5796 23.8716 81.8491 25.1762C80.5403 26.1693 80.0907 28.5877 78.5092 29.8435C77.1774 30.9019 75.3045 31.4169 73.7827 32.6622C73.7772 33.2381 73.7279 33.7475 73.7444 34.2027C74.0894 34.1155 74.4289 34.0277 74.769 33.9345C75.4584 33.7475 76.1429 33.5561 76.7946 33.3642C78.0651 32.9968 79.2364 32.6293 80.1948 32.2948C81.3125 31.9055 82.5222 31.5216 83.8047 31.0993C84.4388 30.6935 85.0686 30.2877 85.66 29.8655C87.0838 28.8559 87.8187 27.0906 88.8368 26.3393C89.8772 25.5771 92.2648 25.8129 93.9794 24.4529C95.1727 23.5042 96.3561 22.1661 97.8725 20.9322C98.7432 20.2248 99.3784 19.1171 100.183 18.1081C100.249 17.4061 100.27 16.7206 100.304 16.0571C100.309 15.92 100.309 15.7829 100.298 15.6507ZM78.7392 8.82935C78.6395 8.8458 78.541 8.86773 78.4429 8.88967C78.3444 8.9116 78.2513 8.93299 78.1478 8.95493C77.0739 9.1858 75.9452 9.43202 74.741 9.66235C74.2652 9.75064 73.7931 9.83838 73.3282 9.90967C73.021 9.96451 72.7203 10.0084 72.4137 10.0517C72.2329 10.0797 72.0522 10.1071 71.8715 10.129C71.7675 10.1455 71.6574 10.1619 71.5539 10.1729C70.5183 10.9077 69.4346 11.659 68.3503 12.4322C66.9813 13.4139 66.811 16.101 65.4857 17.0277C64.0077 18.0642 61.4333 17.3074 60.2067 18.1245C58.7232 19.1116 57.9894 21.8201 56.2868 23.1148C54.5826 24.409 52.557 25.2914 51.1655 26.4052C49.7154 27.5677 49.0796 29.5852 47.8853 30.5674C45.9363 32.1682 43.2688 31.9603 42.7053 32.4374C41.8346 33.1668 41.1835 33.4135 40.8976 33.8352C42.0049 34.1155 43.1812 34.2361 44.3044 34.3293C44.381 34.3348 44.4572 34.3398 44.5289 34.3458C44.7534 34.3617 44.9725 34.3836 45.191 34.4006C45.8596 34.4549 46.5277 34.4884 47.1952 34.5158C48.0337 34.1922 48.9695 33.8133 49.8457 33.2106C51.1332 32.3222 52.6222 31.4558 54.0629 30.4572C55.5092 29.4542 56.6148 27.4361 58.2473 26.29C60.0205 25.0342 62.7093 25.1658 63.9469 24.2555C65.0591 23.4329 66.3515 22.0449 67.9287 20.7891C69.2314 19.7532 70.0425 17.8942 71.417 16.781C72.8298 15.6293 74.3517 14.6642 75.5953 13.6382C77.3313 12.2129 79.6587 10.6939 80.4965 9.99193C80.3487 9.0816 79.5606 8.98838 78.7392 8.82935ZM95.5785 10.8913C95.3485 10.7811 95.1174 10.6719 94.8764 10.5568C94.6908 10.4745 94.5046 10.3868 94.3075 10.299C93.946 10.1345 93.5687 9.97547 93.1848 9.80547C93.026 9.73967 92.8667 9.67386 92.7035 9.60257C92.6701 9.5916 92.6372 9.57515 92.5983 9.5587H92.5929C92.4456 9.49838 92.2928 9.43202 92.1383 9.37225C91.1537 10.1016 89.8006 11.1485 88.2229 12.2952C86.936 13.2329 84.9706 13.5181 83.5133 14.5655C82.1229 15.5635 79.7731 15.2674 78.4041 16.2271C76.8877 17.291 75.436 18.2342 74.171 19.0782C73.0648 19.819 72.9996 22.4293 71.6744 23.4159C70.5129 24.2829 68.0327 23.5645 66.811 24.5187C65.6177 25.4564 65.5033 27.7871 64.3522 28.7139C63.1096 29.7174 61.5648 30.2488 60.492 31.1377C59.0956 32.2893 58.6405 34.1868 57.7648 34.932C57.5896 35.0806 57.3755 35.1903 57.1455 35.2726C57.4308 35.3055 57.7156 35.3384 58.0003 35.3713L58.1476 35.3877C58.2139 35.3987 58.2741 35.4042 58.3404 35.4097C59.4236 35.5358 60.5084 35.651 61.5106 35.7442C61.8337 35.2616 62.2225 34.7949 62.7372 34.439C63.7777 33.7206 64.7087 32.5575 65.9353 31.7081C67.0519 30.9343 68.6625 31.0933 69.8179 30.2877C70.3491 30.0958 70.6394 30.5071 71.1043 30.183C71.4219 29.9587 69.681 28.7303 69.8722 28.3848C70.5567 27.9022 72.331 28.2532 72.9772 27.7981C74.9497 26.4101 75.9239 24.6832 76.9594 23.9204C78.0919 23.0819 80.0644 22.5884 81.6684 21.3156C82.9991 20.2577 84.5106 19.2103 85.9021 18.0752C87.3522 16.8961 88.1243 14.9439 89.3789 13.9123C91.2956 12.3335 93.8853 12.3445 94.5375 11.8016C94.9098 11.4945 95.3206 11.2258 95.6929 10.9461C95.6541 10.9297 95.6157 10.9132 95.5785 10.8913Z" fill="#44110A"/>
<path fill-rule="evenodd" clip-rule="evenodd" d="M100.298 15.6402C100.304 15.6347 100.304 15.6347 100.298 15.6293V15.6018C100.287 15.4483 100.265 15.3002 100.233 15.1577C100.226 15.1577 100.226 15.1577 100.226 15.1631C96.3438 17.9818 91.2838 21.6231 87.7139 24.0031C84.0837 26.427 78.7882 30.6441 74.7687 33.9344C75.4587 33.748 76.1432 33.556 76.7943 33.3641C80.8686 30.5454 85.5508 27.2715 88.1246 25.3741C91.0379 23.2244 96.2628 18.9744 100.298 15.6512L100.304 15.6457L100.298 15.6402ZM92.5981 9.55862H92.5932C89.291 11.9935 80.9787 18.0806 75.8032 21.5354C70.3494 25.1767 61.1275 32.876 58.1474 35.3877C58.2136 35.3986 58.2739 35.4041 58.3401 35.4096C60.3992 34.0002 64.8836 30.9128 69.068 27.9899C69.068 27.9899 69.0729 27.9899 69.0729 27.9844C69.9984 27.3373 70.9129 26.6957 71.7782 26.087C73.5141 24.8641 75.0743 23.7509 76.2139 22.9064C80.3922 19.8189 89.3512 12.3993 92.7032 9.60249C92.6698 9.59152 92.637 9.57507 92.5981 9.55862ZM78.1475 8.95539C74.5759 11.5822 66.7778 17.2799 61.8389 20.5757C59.1616 22.3635 55.5741 25.1273 52.2659 27.7815C48.9205 30.4577 45.8593 33.0131 44.3041 34.3293C44.3813 34.3347 44.4569 34.3402 44.5286 34.3457C46.2591 33.1612 49.4682 30.9512 52.8032 28.637C56.3676 26.1583 60.064 23.5589 62.2496 21.9467C66.3124 18.947 74.8832 11.8564 78.4427 8.88959C78.3441 8.91152 78.251 8.93346 78.1475 8.95539ZM61.0941 11.1435H61.0886C58.8105 12.5857 54.3858 15.3935 50.1089 18.2231C49.5448 18.596 48.9802 18.9689 48.4222 19.3418C43.1103 22.8899 36.9934 28.0502 34.8418 29.8928C34.879 29.9312 34.9228 29.9641 34.9667 30.0025C37.4868 28.4012 44.6058 23.8331 48.8329 20.7128C49.6275 20.126 50.4982 19.4789 51.4073 18.7935C55.0812 16.0241 59.3691 12.7118 61.4282 11.1106C61.3137 11.1215 61.2031 11.1325 61.0941 11.1435Z" fill="#601309"/>
<path fill-rule="evenodd" clip-rule="evenodd" d="M26.8232 22.5818C29.4803 22.7584 31.4632 24.6311 31.1045 27.8107C30.7688 31.084 28.4124 32.8865 25.7559 32.71C23.0989 32.5323 20.8005 30.7747 21.1395 27.3462C21.3832 23.9522 24.1662 22.4047 26.8232 22.5818Z" fill="#C30A02"/>
<path fill-rule="evenodd" clip-rule="evenodd" d="M26.8244 22.5813C29.4781 22.759 31.4621 24.6317 31.1024 27.8107C30.7678 31.0851 28.4135 32.8882 25.7549 32.71C23.1 32.5323 20.8027 30.7769 21.1384 27.3468C21.1505 27.2025 21.1653 27.0561 21.1833 26.9207C21.4029 28.874 22.9363 29.8825 24.6766 29.9993C26.6853 30.1331 28.4661 28.7687 28.7208 26.2933C28.9354 24.369 28.0231 23.0792 26.6223 22.5714C26.6896 22.5725 26.757 22.5769 26.8244 22.5813Z" fill="#B20606"/>
<path fill-rule="evenodd" clip-rule="evenodd" d="M27.2939 23.2202C29.6382 22.8149 31.3649 25.1878 31.0407 28.0427C30.7313 31.0742 28.5594 32.6492 26.0897 32.5795C22.805 32.4863 21.0089 29.9297 21.5954 28.8642C21.9524 28.5736 22.3215 31.0588 25.4884 31.2661C27.6416 31.4071 29.5616 29.9495 29.8211 27.2969C30.113 24.3159 26.9571 23.5059 27.2939 23.2202Z" fill="#960202"/>
<path fill-rule="evenodd" clip-rule="evenodd" d="M29.9998 29.1609C30.1751 29.1521 30.3645 29.0507 30.4867 28.907C30.5978 28.794 30.6707 28.629 30.7194 28.5028C30.818 28.2473 30.8782 27.9643 30.7134 27.7153C30.5338 27.4433 30.1537 27.5453 29.9292 27.6715C29.6499 27.8283 29.479 28.1327 29.4413 28.4381C29.4007 28.7639 29.6006 29.1801 29.9998 29.1609ZM24.6255 32.2319C24.1923 32.1304 23.2647 31.7877 23.2389 31.2223C23.234 31.0956 23.3534 30.9547 23.4843 30.9936C23.9202 31.1225 24.315 31.3599 24.7848 31.3884C25.4475 31.4296 26.0646 31.3868 26.6993 31.1526C26.8981 31.0786 27.1248 31.3539 26.9474 31.5261C26.3122 32.1469 25.4754 32.4304 24.6255 32.2319Z" fill="#D8413B"/>
<path fill-rule="evenodd" clip-rule="evenodd" d="M30.4203 25.1015C30.5955 26.8338 29.2374 28.8546 27.0349 29.9273C24.7289 31.0526 22.287 30.7603 21.24 29.323C21.1217 29.1661 21.0231 28.995 20.9459 28.8113C20.7559 28.3699 20.6874 27.8862 20.7406 27.397C20.7345 27.3921 20.7384 27.3872 20.7373 27.3822C20.8917 25.8094 22.0132 24.0398 23.96 23.0982C25.7398 22.2301 27.7654 22.2817 29.0019 22.9776C29.5463 23.2764 29.9679 23.7212 30.2116 24.2871C30.325 24.5487 30.3923 24.8191 30.4203 25.1015Z" fill="#E22323"/>
<path fill-rule="evenodd" clip-rule="evenodd" d="M29.6639 25.1529C29.1749 24.8568 26.3377 26.5815 26.3377 26.5815C26.3377 26.5815 26.6126 27.1205 26.8574 28.0572C27.2232 29.4588 27.9269 28.7514 28.4679 28.3001C29.0095 27.8493 30.5379 25.6821 29.6639 25.1529ZM26.0957 23.1102C25.3805 23.2763 24.622 23.5412 25.1313 24.3956C25.7299 25.4008 26.2638 26.1658 26.2638 26.1658C26.2638 26.1658 28.3924 25.1025 29.3107 24.4828C30.1283 23.9317 27.0403 22.8914 26.0957 23.1102ZM24.2885 29.9837C25.9325 29.9672 26.7139 29.7528 26.4746 28.2776C26.3174 27.2966 26.1011 26.8271 26.1011 26.8271C26.1011 26.8271 22.5449 28.0193 21.8368 28.3445C20.8188 28.8128 23.4047 29.9913 24.2885 29.9837ZM22.9321 24.6616C23.6516 24.1033 24.4336 24.4192 25.07 25.2407C25.7074 26.0627 25.864 26.4142 25.864 26.4142C25.864 26.4142 22.5832 27.7084 21.7246 27.6091C20.5811 27.4775 22.2125 25.2204 22.9321 24.6616Z" fill="#B20606"/>
<path fill-rule="evenodd" clip-rule="evenodd" d="M28.7196 25.6462C28.4556 25.7015 28.2103 25.865 28.0016 26.0306C27.9452 26.0755 27.9677 26.1534 28.0394 26.1616C28.2618 26.1858 28.5547 26.2154 28.771 26.1359C28.8981 26.0882 29.1686 25.9708 29.1133 25.7811C29.0706 25.6319 28.8373 25.6215 28.7196 25.6462ZM29.0361 26.3914C28.8713 26.2894 28.7387 26.3031 28.5569 26.3475C28.391 26.3881 28.1955 26.4243 28.0745 26.5499C28.0296 26.596 28.0394 26.6607 28.0778 26.7056C28.1944 26.8405 28.3872 26.8592 28.5558 26.8773C28.7935 26.9025 28.9786 26.8488 29.1078 26.6409C29.1626 26.5532 29.1177 26.4424 29.0361 26.3914ZM28.1205 27.2507C27.9485 27.1855 27.7634 27.0785 27.5761 27.1367C27.5367 27.1487 27.4962 27.1904 27.5022 27.2359C27.5482 27.611 28.144 27.8512 28.4523 27.656C28.4896 27.6319 28.495 27.588 28.477 27.5496C28.3998 27.3878 28.2842 27.3127 28.1205 27.2507ZM27.2853 27.7262C27.2618 27.7229 27.235 27.7289 27.2235 27.7536C27.1517 27.9028 27.2191 28.1161 27.2799 28.2581C27.3708 28.4704 27.5559 28.6168 27.7913 28.5713C27.8691 28.5559 27.9096 28.4627 27.8905 28.3914C27.8253 28.1616 27.5449 27.7607 27.2853 27.7262ZM28.1834 24.3975C27.7804 24.1891 27.2947 24.6399 27.2273 25.0199C27.218 25.066 27.2552 25.1022 27.3012 25.0923C27.6287 25.0248 28.1194 24.8543 28.2267 24.4956C28.2382 24.4589 28.2179 24.4145 28.1834 24.3975ZM26.8073 23.7822C26.5773 23.8222 26.4415 23.9917 26.373 24.2045C26.3517 24.2752 26.3588 24.5938 26.5143 24.5318C26.6288 24.4858 26.6616 24.3553 26.7301 24.2626C26.8138 24.1496 26.8703 24.0092 26.9004 23.8721C26.9119 23.8129 26.8626 23.7723 26.8073 23.7822ZM25.867 23.6358C25.6551 23.763 25.5954 24.1249 25.7838 24.2971C25.8199 24.3306 25.8949 24.3295 25.9163 24.2763C25.9858 24.1035 26.0072 23.854 25.9612 23.672C25.9513 23.6319 25.9021 23.6149 25.867 23.6358ZM25.114 28.6875C25.1206 28.6837 25.1266 28.6787 25.1332 28.6755C25.0116 28.6628 24.9076 28.7566 24.8446 28.8476C24.6853 29.0851 24.7986 29.5293 25.0626 29.5436C25.3517 29.56 25.5373 29.1959 25.4574 28.9173C25.407 28.7418 25.2597 28.6711 25.114 28.6875ZM24.3545 28.6963C24.0423 28.6327 23.7171 28.869 23.6776 29.1887C23.6607 29.3286 23.7565 29.4267 23.8978 29.4021C24.1891 29.35 24.4229 29.0802 24.424 28.7846C24.424 28.7445 24.3945 28.704 24.3545 28.6963ZM23.5933 28.4736C23.348 28.3623 23.0221 28.5449 22.9011 28.7681C22.8732 28.8197 22.911 28.8833 22.9696 28.8833C23.1919 28.8844 23.5046 28.7714 23.6218 28.5751C23.6426 28.5411 23.6283 28.4906 23.5933 28.4736ZM23.8222 25.2299C23.6957 25.163 23.3129 25.1351 23.3228 25.3676C23.3365 25.7037 23.7718 25.9719 24.0774 25.8535C24.1245 25.8354 24.1502 25.8019 24.1535 25.7504C24.1683 25.5096 24.0298 25.338 23.8222 25.2299ZM23.1623 25.9225C23.0479 25.9094 22.6218 25.9818 22.762 26.1956C22.9225 26.4397 23.4487 26.557 23.6809 26.37C23.7171 26.341 23.7291 26.302 23.7078 26.2587C23.5993 26.0432 23.3918 25.9478 23.1623 25.9225ZM23.4602 26.8257C23.2702 27.1339 22.727 27.2683 22.4756 26.9574C22.3661 26.823 22.6552 26.6574 22.7407 26.63C22.9887 26.5505 23.2039 26.5823 23.4274 26.7106C23.4657 26.7331 23.4838 26.7868 23.4602 26.8257Z" fill="#FF6F52"/>
<path fill-rule="evenodd" clip-rule="evenodd" d="M90.054 21.8535C90.1191 21.8195 90.0945 21.8278 89.98 21.8804C89.9138 21.9199 89.8519 21.9829 89.796 22.0367C89.6646 22.1612 89.5781 22.3197 89.5376 22.4973C89.4581 22.8439 89.7467 23.1099 90.0841 23.0446C90.4548 22.9722 90.6114 22.6684 90.6498 22.3235C90.6848 21.9961 90.3535 21.7197 90.054 21.8535ZM78.7035 20.4475C78.6941 20.4332 78.6843 20.42 78.675 20.4063C78.5123 20.176 78.2341 20.0104 77.9423 20.108C77.6717 20.1985 77.4417 20.3422 77.3476 20.6273C77.2983 20.7759 77.2961 20.9602 77.4094 21.0809C77.5069 21.1834 77.6493 21.287 77.7895 21.3194C78.1241 21.3984 78.3338 21.3847 78.6109 21.1626C78.8031 21.0096 78.8426 20.6438 78.7035 20.4475ZM82.487 23.361C82.2696 23.293 82.0352 23.2717 81.844 23.4148C81.6354 23.5705 81.6387 23.8211 81.844 23.9769C81.9744 24.0761 82.125 24.0805 82.2728 24.1359C82.752 24.3191 82.9842 23.5179 82.487 23.361ZM42.3503 20.5347C42.2485 20.5961 42.1866 20.726 42.2238 20.8439C42.3191 21.1412 42.5513 21.6232 42.8914 21.6753C43.0956 21.706 43.2763 21.6561 43.3919 21.4713C43.7665 20.867 42.8946 20.204 42.3503 20.5347ZM46.4892 19.6885C46.0528 20.2599 47.0456 21.1839 47.4229 20.5385C47.7246 20.0219 46.918 19.1275 46.4892 19.6885ZM45.3836 22.4513C45.2346 22.4266 45.0594 22.5154 45.0698 22.6904C45.0917 23.0715 45.2538 23.4142 45.7045 23.3292C45.8381 23.304 45.9482 23.1516 45.9405 23.0178C45.9235 22.6898 45.6924 22.5028 45.3836 22.4513ZM48.4787 26.5379C48.3396 26.4836 48.1162 26.4644 47.9645 26.455C47.8807 26.4496 47.7805 26.506 47.7427 26.5823C47.5385 26.9969 47.947 27.4175 48.3588 27.4284C48.9026 27.4427 48.9311 26.7117 48.4787 26.5379ZM75.9024 16.5742C75.7846 16.4459 75.6631 16.3921 75.4939 16.3598C75.2896 16.3214 75.127 16.5567 75.2852 16.7184C75.3668 16.8012 75.432 16.8819 75.5295 16.9477C75.6691 17.0425 75.7282 17.0524 75.8931 17.0694C75.9626 17.0765 76.0371 17.0014 76.03 16.9323C76.0135 16.7749 76.0157 16.6976 75.9024 16.5742ZM63.2792 19.9589C63.0251 19.9205 62.8011 20.2062 63.0131 20.4168C63.2305 20.6328 63.4408 20.7732 63.7546 20.7343C63.8378 20.7233 63.8936 20.6756 63.8997 20.5884C63.9265 20.2073 63.6237 20.0104 63.2792 19.9589ZM55.261 13.6628C55.0671 13.4819 54.882 13.4522 54.6279 13.4281C54.4275 13.4095 54.3634 13.6672 54.4757 13.7939C54.6055 13.937 54.7079 14.0615 54.8793 14.1591C54.9839 14.2189 55.1005 14.2096 55.198 14.152C55.2703 14.1344 55.3229 14.09 55.3294 14.0078C55.3229 14.0204 55.3163 14.0324 55.3103 14.0456C55.3826 13.9288 55.3612 13.7571 55.261 13.6628ZM71.5609 13.6118C71.4683 13.461 71.361 13.2959 71.1945 13.223C70.9344 13.1095 70.7066 13.3376 70.8199 13.5976C70.8928 13.7648 71.0576 13.8718 71.2082 13.9655C71.2854 14.0143 71.3911 14.011 71.4689 13.9655C71.5099 13.9414 71.5373 13.9134 71.5609 13.8729C71.6069 13.795 71.6101 13.6891 71.5609 13.6118ZM77.353 14.1092C77.1712 13.7297 76.7293 13.6941 76.3848 13.8471C76.1762 13.9403 76.2151 14.2469 76.3848 14.3505C76.5732 14.4646 76.6778 14.6357 76.9056 14.691C77.261 14.7777 77.5014 14.419 77.353 14.1092ZM73.8543 15.41C73.7365 15.2674 73.6051 15.2427 73.4288 15.2334C72.8883 15.2021 72.8883 16.1037 73.4288 16.073C73.6051 16.0626 73.7365 16.0379 73.8543 15.8964C73.9824 15.7412 73.9824 15.5652 73.8543 15.41ZM65.7643 24.8899C65.5157 24.551 65.0957 24.551 64.8476 24.8899C64.6444 25.1685 64.5962 25.5206 64.7578 25.8304C64.9725 26.245 65.6389 26.245 65.8541 25.8304C66.0157 25.5206 65.9675 25.1685 65.7643 24.8899ZM62.3286 23.5793C62.1478 23.4669 61.9627 23.4899 61.8165 23.5809C61.6796 23.6314 61.5663 23.7537 61.5318 23.9067C61.5285 23.9072 61.523 23.9111 61.5093 23.9347C61.4699 23.9906 61.4463 24.058 61.4299 24.1244C61.3735 24.3608 61.4611 24.5648 61.6227 24.7337C61.8932 25.0177 62.2984 24.9037 62.506 24.6201C62.7683 24.2599 62.7157 23.82 62.3286 23.5793ZM53.0201 20.0598C52.9643 20.3318 52.6319 20.4288 52.4095 20.3082C52.202 20.1958 52.0267 20.0367 52.0021 19.8102C51.9933 19.7878 51.9753 19.7719 51.9709 19.7455C51.9194 19.377 52.2266 19.0441 52.6138 19.1867C52.9889 19.3238 53.0951 19.6962 53.0201 20.0598ZM78.2599 24.8954C78.2643 24.9245 78.2686 24.9536 78.2725 24.9832C78.3229 25.3402 78.9389 25.3402 78.9904 24.9832C78.9937 24.9536 78.9981 24.9245 79.0019 24.8954C79.0906 24.2725 78.1712 24.2725 78.2599 24.8954ZM52.8931 15.7955C52.7699 15.8054 52.651 15.8054 52.5284 15.7949C52.2524 15.7719 52.0459 15.5526 52.0246 15.3102C51.9583 15.1314 51.9687 14.917 52.1259 14.7229C52.4577 14.3138 52.99 14.4333 53.3164 14.7717C53.6992 15.1687 53.4029 15.7549 52.8931 15.7955Z" fill="#44110A"/>
<path fill-rule="evenodd" clip-rule="evenodd" d="M90.008 21.6248C90.0732 21.5908 90.0485 21.5996 89.9341 21.6523C89.8678 21.6912 89.807 21.7548 89.7501 21.808C89.6197 21.9325 89.5321 22.0915 89.4916 22.2692C89.4122 22.6152 89.7019 22.8812 90.0381 22.8159C90.4088 22.7436 90.5666 22.4397 90.6038 22.0954C90.6399 21.7674 90.3075 21.4916 90.008 21.6248ZM78.6575 20.2188C78.6482 20.2051 78.6383 20.1914 78.629 20.1782C78.4664 19.9479 78.1882 19.7823 77.8974 19.8793C77.6258 19.9704 77.3958 20.114 77.3016 20.3992C77.2523 20.5473 77.2501 20.7315 77.3635 20.8522C77.4609 20.9547 77.6033 21.0589 77.7435 21.0907C78.0781 21.1702 78.2878 21.156 78.5655 20.9344C78.7572 20.7814 78.7966 20.4151 78.6575 20.2188ZM82.441 23.1324C82.2236 23.0644 81.9903 23.0435 81.7981 23.1861C81.5894 23.3424 81.5927 23.5925 81.7981 23.7482C81.9284 23.848 82.079 23.8518 82.228 23.9078C82.7071 24.0904 82.9382 23.2897 82.441 23.1324ZM42.3043 20.306C42.2025 20.3679 42.1406 20.4974 42.1789 20.6153C42.2731 20.913 42.5053 21.3945 42.8454 21.4466C43.0497 21.4773 43.2315 21.4274 43.3459 21.2432C43.7205 20.6383 42.8487 19.9758 42.3043 20.306ZM46.4443 19.4598C46.0068 20.0318 46.9996 20.9553 47.3769 20.3104C47.6798 19.7938 46.872 18.8994 46.4443 19.4598ZM45.3387 22.2226C45.1887 22.1979 45.0134 22.2873 45.0238 22.4617C45.0463 22.8434 45.2078 23.1861 45.6585 23.1011C45.7921 23.0759 45.9022 22.9234 45.8956 22.7896C45.8776 22.4617 45.6465 22.2741 45.3387 22.2226ZM48.4338 26.3092C48.2937 26.2554 48.0702 26.2357 47.9185 26.2269C47.8348 26.2214 47.7345 26.2779 47.6968 26.3536C47.4925 26.7682 47.901 27.1893 48.3128 27.2003C48.8572 27.214 48.8851 26.4836 48.4338 26.3092ZM75.8564 16.3461C75.7387 16.2172 75.6171 16.164 75.4479 16.1317C75.2447 16.0933 75.0821 16.328 75.2393 16.4897C75.3208 16.5731 75.3871 16.6537 75.4835 16.719C75.6231 16.8138 75.6834 16.8237 75.8471 16.8407C75.9167 16.8484 75.9911 16.7733 75.984 16.7036C75.9676 16.5462 75.9698 16.4695 75.8564 16.3461ZM63.2332 19.7302C62.9792 19.6918 62.7552 19.9775 62.9671 20.1881C63.1845 20.4041 63.3959 20.5445 63.7086 20.5056C63.7918 20.4952 63.8477 20.4475 63.8537 20.3597C63.8805 19.9791 63.5777 19.7823 63.2332 19.7302ZM55.215 13.4347C55.0212 13.2537 54.8361 13.2236 54.582 13.1994C54.3815 13.1813 54.3175 13.4391 54.4297 13.5657C54.5595 13.7089 54.663 13.8334 54.8333 13.9304C54.9379 13.9902 55.0546 13.9814 55.152 13.9233C55.2254 13.9063 55.278 13.8613 55.2835 13.7791C55.2769 13.7917 55.2703 13.8043 55.2643 13.8175C55.3366 13.7001 55.3163 13.529 55.215 13.4347ZM71.516 13.3831C71.4223 13.2323 71.315 13.0673 71.1485 12.9943C70.8884 12.8808 70.6606 13.1095 70.774 13.3694C70.8468 13.5367 71.0116 13.6436 71.1622 13.7368C71.2405 13.7857 71.3451 13.7829 71.4229 13.7368C71.464 13.7133 71.4913 13.6853 71.516 13.6442C71.5609 13.5663 71.5642 13.4605 71.516 13.3831ZM77.3071 13.8805C77.1252 13.5016 76.6833 13.4659 76.34 13.6189C76.1313 13.7116 76.1697 14.0187 76.34 14.1218C76.5272 14.2359 76.6318 14.407 76.8607 14.4624C77.2151 14.549 77.4555 14.1909 77.3071 13.8805ZM73.8083 15.1813C73.6917 15.0393 73.5592 15.0146 73.3828 15.0047C72.8423 14.974 72.8423 15.875 73.3828 15.8443C73.5592 15.8339 73.6917 15.8097 73.8083 15.6677C73.9365 15.5125 73.9365 15.3365 73.8083 15.1813ZM65.7183 24.6618C65.4708 24.3224 65.0497 24.3224 64.8027 24.6618C64.5985 24.9404 64.5514 25.2919 64.7118 25.6017C64.9276 26.0163 65.5929 26.0163 65.8092 25.6017C65.9697 25.2919 65.9215 24.9404 65.7183 24.6618ZM62.2826 23.3506C62.1019 23.2382 61.9168 23.2618 61.7706 23.3528C61.6337 23.4033 61.5208 23.525 61.4858 23.6786C61.4825 23.6786 61.477 23.6829 61.4633 23.7065C61.4239 23.7619 61.4004 23.8299 61.3839 23.8963C61.3275 24.1321 61.4152 24.3361 61.5767 24.5055C61.8472 24.789 62.2536 24.6755 62.46 24.392C62.7223 24.0312 62.6697 23.5919 62.2826 23.3506ZM52.9742 19.8311C52.9183 20.1036 52.5859 20.2007 52.3636 20.08C52.156 19.9671 51.9819 19.8086 51.9561 19.5816C51.9474 19.5591 51.9293 19.5432 51.926 19.5174C51.8734 19.1483 52.1807 18.816 52.5678 18.958C52.9429 19.0957 53.0492 19.468 52.9742 19.8311ZM78.2139 24.6667C78.2183 24.6964 78.2227 24.7249 78.2265 24.755C78.2769 25.1115 78.893 25.1115 78.9444 24.755C78.9488 24.7249 78.9532 24.6964 78.957 24.6667C79.0447 24.0438 78.1263 24.0438 78.2139 24.6667ZM52.8471 15.5674C52.725 15.5772 52.6051 15.5772 52.4824 15.5663C52.2064 15.5438 51.9999 15.3244 51.9786 15.082C51.9123 14.9027 51.9238 14.6883 52.0799 14.4942C52.4117 14.0851 52.944 14.2046 53.2704 14.5435C53.6532 14.94 53.358 15.5268 52.8471 15.5674Z" fill="#284912"/>
<path fill-rule="evenodd" clip-rule="evenodd" d="M73.6618 17.461C73.6618 17.461 73.4614 17.4188 73.1142 17.3333C72.9401 17.2932 72.7331 17.2269 72.4927 17.1512C72.2506 17.081 71.9823 16.9889 71.6981 16.8682C71.4078 16.7608 71.1034 16.6198 70.7846 16.463C70.4616 16.3144 70.1401 16.1197 69.8022 15.9283C69.4813 15.71 69.1286 15.5126 68.8127 15.251C68.4814 15.0092 68.1703 14.7317 67.8604 14.4515C67.5679 14.1537 67.2684 13.8592 67.0181 13.5297C66.8916 13.3662 66.7618 13.2078 66.6474 13.04C66.5417 12.8672 66.4366 12.6967 66.3331 12.5283C66.223 12.3649 66.1501 12.1817 66.0696 12.0101C65.9963 11.834 65.9015 11.6734 65.8561 11.4962C65.7449 11.1508 65.637 10.8267 65.6058 10.5102C65.5828 10.3545 65.5554 10.2064 65.5396 10.065C65.5406 9.92182 65.5412 9.78637 65.5417 9.65805C65.5374 9.40469 65.5461 9.18589 65.585 9.00711C65.6425 8.64957 65.683 8.4505 65.683 8.4505C65.683 8.4505 65.6907 8.65834 65.6912 9.0126C65.6797 9.18918 65.7044 9.40305 65.7455 9.64544C65.7624 9.76553 65.7811 9.89386 65.8008 10.0288C65.8364 10.1604 65.8741 10.2986 65.9136 10.4428C65.9744 10.7345 66.1113 11.029 66.2356 11.3438C66.2887 11.5045 66.3927 11.6498 66.4727 11.8077C66.5641 11.9613 66.6321 12.1302 66.746 12.2782C66.85 12.4312 66.9557 12.5864 67.063 12.7438C67.183 12.8924 67.3051 13.0421 67.4272 13.194C67.6665 13.5 67.9573 13.7753 68.2377 14.0545C68.5285 14.3259 68.8209 14.5957 69.1352 14.8326C69.4364 15.0854 69.7606 15.2999 70.0629 15.5236C70.3832 15.7188 70.6768 15.9371 70.9796 16.1038C71.2786 16.2771 71.559 16.4476 71.8295 16.5836C72.3634 16.8737 72.8169 17.0909 73.1482 17.2324C73.4762 17.3733 73.6618 17.461 73.6618 17.461Z" fill="#428716"/>
<path fill-rule="evenodd" clip-rule="evenodd" d="M68.9085 10.491C68.9085 10.491 68.8795 10.5596 68.8231 10.6731C68.7935 10.729 68.7574 10.7965 68.7158 10.8738C68.6764 10.9511 68.6156 11.0345 68.5833 11.1304C68.546 11.2259 68.5066 11.3262 68.4584 11.426C68.4036 11.522 68.3823 11.6432 68.3434 11.7584C68.3133 11.8752 68.2558 11.9892 68.2465 12.1159C68.2257 12.2393 68.2049 12.3649 68.184 12.4904C68.1824 12.6171 68.1802 12.7433 68.1786 12.8683C68.166 12.9939 68.2016 13.1151 68.2114 13.2363C68.2295 13.3558 68.2295 13.477 68.2695 13.5839C68.3023 13.6925 68.3264 13.7989 68.3489 13.8993C68.3664 14.0024 68.4113 14.0852 68.4376 14.1658C68.4655 14.2475 68.4907 14.3182 68.511 14.3764C68.5504 14.497 68.5696 14.5705 68.5696 14.5705C68.5696 14.5705 68.5137 14.5255 68.4206 14.4372C68.3746 14.3928 68.3177 14.3391 68.2569 14.2727C68.1977 14.2047 68.115 14.1362 68.0658 14.0364C67.9562 13.8444 67.7969 13.6218 67.7399 13.3377C67.7114 13.1984 67.6403 13.0575 67.6507 12.9028C67.6468 12.7504 67.643 12.5952 67.6392 12.44C67.6709 12.2881 67.7027 12.1367 67.7339 11.9876C67.7525 11.8346 67.8462 11.7095 67.8976 11.5768C68.0022 11.312 68.1977 11.1074 68.3385 10.9363C68.4058 10.8442 68.4902 10.7948 68.5575 10.7378C68.6287 10.6852 68.6906 10.6396 68.741 10.6024C68.8456 10.5294 68.9085 10.491 68.9085 10.491Z" fill="#428716"/>
<path fill-rule="evenodd" clip-rule="evenodd" d="M67.2112 13.7208C67.2112 13.7208 67.1362 13.6742 67.0124 13.5876C66.8859 13.5048 66.7205 13.36 66.5113 13.2196C66.4078 13.1472 66.2972 13.0699 66.1861 12.9822C66.0754 12.895 65.9402 12.8215 65.8175 12.7283C65.5678 12.5446 65.2836 12.3784 65.0092 12.2002C64.725 12.0378 64.4452 11.8656 64.1675 11.7318C64.0284 11.666 63.9025 11.5805 63.7705 11.5289C63.6402 11.4725 63.5181 11.4127 63.4052 11.3562C63.1796 11.2427 62.9792 11.1763 62.8439 11.1067C62.7065 11.0425 62.6282 11.0008 62.6282 11.0008C62.6282 11.0008 62.7147 10.997 62.8664 11.0003C63.0175 11.0102 63.2415 11.0003 63.4967 11.0557C63.753 11.1056 64.0575 11.1632 64.3619 11.2893C64.5125 11.3529 64.6817 11.3957 64.8296 11.4856C64.9829 11.5662 65.1379 11.649 65.2929 11.7313C65.4375 11.8311 65.5815 11.9304 65.7239 12.0291C65.8701 12.1217 65.9911 12.2424 66.1149 12.3499C66.364 12.561 66.5683 12.7957 66.7337 12.9992C66.9073 13.196 67.0069 13.3863 67.0913 13.513C67.1701 13.643 67.2112 13.7208 67.2112 13.7208Z" fill="#428716"/>
<path fill-rule="evenodd" clip-rule="evenodd" d="M71.2851 11.5107C71.2851 11.5107 71.2665 11.582 71.2265 11.7015C71.2046 11.7602 71.1783 11.832 71.1482 11.9137C71.1208 11.9955 71.0699 12.0848 71.0491 12.1841C71.0228 12.2828 70.9949 12.3881 70.9582 12.4934C70.9177 12.5965 70.8974 12.7155 70.8711 12.8372C70.8087 13.0763 70.7709 13.3341 70.7413 13.594C70.7172 13.7218 70.7243 13.8539 70.7139 13.9834C70.7046 14.1117 70.6959 14.24 70.7052 14.3639C70.7134 14.4879 70.7013 14.6107 70.7085 14.7259C70.7216 14.8405 70.726 14.9513 70.7304 15.0549C70.7326 15.2633 70.7671 15.4333 70.7693 15.5605C70.7758 15.6856 70.7758 15.7607 70.7758 15.7607C70.7758 15.7607 70.7331 15.7031 70.6658 15.5951C70.605 15.4854 70.4922 15.334 70.4248 15.1273C70.3405 14.9249 70.2605 14.6793 70.2249 14.4045C70.2003 14.268 70.1762 14.1265 70.1849 13.9795C70.1899 13.8331 70.1762 13.6839 70.197 13.5359C70.2233 13.3889 70.249 13.2419 70.2748 13.0977C70.3021 12.9535 70.3695 12.8219 70.4128 12.6903C70.4954 12.427 70.6663 12.2055 70.7813 12.0218C70.8372 11.9242 70.9149 11.8655 70.9735 11.8002C71.0359 11.7394 71.0907 11.6862 71.1356 11.6423C71.2282 11.5567 71.2851 11.5107 71.2851 11.5107Z" fill="#428716"/>
<path fill-rule="evenodd" clip-rule="evenodd" d="M75.5292 17.2908C75.5292 17.2908 75.3343 17.4229 74.9926 17.6543C74.8255 17.7761 74.6043 17.8929 74.3414 18.0201C74.2106 18.0859 74.0715 18.1567 73.9241 18.2307C73.7741 18.2932 73.6098 18.3437 73.4411 18.4045C73.106 18.5378 72.7281 18.6266 72.3256 18.7193C71.9248 18.8158 71.49 18.8646 71.0426 18.9047C70.5924 18.9195 70.1253 18.948 69.6538 18.8992C69.1796 18.8833 68.7075 18.7873 68.2327 18.7166C67.7662 18.6025 67.2963 18.5005 66.8516 18.3393C66.3966 18.2099 65.9787 18.0015 65.5642 17.8309C65.165 17.6264 64.7729 17.4383 64.4317 17.2085C64.0851 16.9892 63.7598 16.7786 63.4811 16.5537C63.3392 16.4452 63.2001 16.3453 63.0753 16.2423C62.9559 16.1309 62.8431 16.0251 62.7374 15.9264C62.5238 15.7306 62.3415 15.5584 62.2073 15.3994C61.9296 15.0906 61.7791 14.9108 61.7791 14.9108C61.7791 14.9108 61.9614 15.0605 62.2801 15.321C62.4313 15.4592 62.6333 15.6056 62.8666 15.769C63.0944 15.939 63.3595 16.1178 63.6563 16.3004C63.9443 16.4973 64.2767 16.676 64.6294 16.8603C64.9755 17.0555 65.3709 17.2019 65.7591 17.39C66.1644 17.5408 66.5767 17.7119 67.0132 17.8353C67.4414 17.985 67.8938 18.0739 68.3406 18.1792C68.7924 18.2521 69.2436 18.3519 69.6954 18.3716C70.1456 18.4215 70.5891 18.4226 71.0201 18.4237C71.4478 18.3958 71.8673 18.3903 72.2572 18.3278C72.6487 18.2685 73.0206 18.2137 73.3519 18.1106C73.52 18.0667 73.681 18.0245 73.8338 17.9845C73.9827 17.9318 74.124 17.8825 74.256 17.8359C74.5238 17.7476 74.7587 17.6609 74.9405 17.5622C75.3151 17.3895 75.5292 17.2908 75.5292 17.2908Z" fill="#428716"/>
<path fill-rule="evenodd" clip-rule="evenodd" d="M60.7605 17.6308C60.7605 17.6308 60.8509 17.6445 61.0058 17.6769C61.1603 17.6994 61.3788 17.7827 61.6372 17.8123C61.7654 17.8315 61.9028 17.8518 62.0441 17.8814C62.1843 17.9143 62.3459 17.9061 62.5014 17.9302C62.8168 17.9768 63.1563 17.962 63.492 17.9708C63.6607 17.9598 63.8288 17.9483 63.9942 17.9374C64.1612 17.9335 64.3206 17.8957 64.4783 17.8743C64.6333 17.843 64.7926 17.8425 64.9323 17.7964C65.0735 17.758 65.2105 17.7284 65.3386 17.7016C65.5954 17.6495 65.7953 17.5595 65.9503 17.5244C66.1047 17.4838 66.1929 17.4608 66.1929 17.4608C66.1929 17.4608 66.1266 17.5211 66.0018 17.6204C65.8742 17.7109 65.7028 17.8765 65.4552 17.9938C65.3331 18.0558 65.199 18.1227 65.0538 18.1874C64.9115 18.2626 64.7477 18.2988 64.5812 18.3465C64.4126 18.3843 64.2423 18.4567 64.0583 18.4627C63.8765 18.4814 63.6925 18.5 63.5074 18.5187C63.3217 18.5148 63.1361 18.5006 62.9543 18.4907C62.7708 18.4912 62.5961 18.4413 62.4264 18.4057C62.2566 18.3662 62.0945 18.3393 61.9439 18.2768C61.7933 18.2209 61.6537 18.1611 61.5272 18.1057C61.2681 18.007 61.1 17.8578 60.9631 17.7767C60.8328 17.6868 60.7605 17.6308 60.7605 17.6308Z" fill="#428716"/>
<path fill-rule="evenodd" clip-rule="evenodd" d="M66.7021 14.9108C66.7021 14.9108 66.7509 14.9903 66.8281 15.1313C66.9108 15.2673 66.9957 15.4872 67.1353 15.7137C67.206 15.8255 67.2815 15.9456 67.3522 16.074C67.4173 16.205 67.5236 16.3262 67.6134 16.4606C67.7109 16.59 67.7914 16.737 67.9086 16.8603C68.0175 16.9887 68.1287 17.1186 68.2404 17.2497C68.3571 17.3736 68.4846 17.4893 68.604 17.6089C68.7207 17.7323 68.8505 17.8365 68.977 17.9385C69.1073 18.0333 69.2141 18.1556 69.3422 18.2346C69.4671 18.3174 69.5821 18.4024 69.6883 18.483C69.9002 18.6464 70.1007 18.7468 70.2294 18.8439C70.3619 18.9376 70.4369 18.9908 70.4369 18.9908C70.4369 18.9908 70.3466 18.9777 70.1883 18.9448C70.0344 18.9036 69.7962 18.8751 69.5426 18.7616C69.414 18.7095 69.2732 18.6514 69.1281 18.5828C68.977 18.5231 68.8406 18.42 68.6916 18.3267C68.5454 18.2286 68.3828 18.1397 68.253 18.0054C68.1166 17.8787 67.9715 17.7559 67.8385 17.6215C67.7207 17.4734 67.6035 17.3248 67.4874 17.179C67.3615 17.0408 67.2969 16.8625 67.2038 16.7134C67.0181 16.414 66.9272 16.0822 66.8401 15.8179C66.7892 15.6852 66.7805 15.5612 66.7618 15.4504C66.7476 15.3397 66.7356 15.2432 66.7246 15.1636C66.7076 15.0041 66.7021 14.9108 66.7021 14.9108Z" fill="#428716"/>
<path fill-rule="evenodd" clip-rule="evenodd" d="M58.553 14.5707C58.553 14.5707 58.6335 14.619 58.7687 14.71C58.9067 14.7928 59.0842 14.9535 59.3169 15.0868C59.4319 15.1553 59.5557 15.2283 59.6794 15.3111C59.7977 15.3999 59.956 15.4525 60.0956 15.5354C60.3798 15.7015 60.7095 15.815 61.0277 15.951C61.1936 16.0009 61.3595 16.0514 61.5227 16.1007C61.6848 16.1589 61.8518 16.1814 62.0117 16.217C62.1733 16.2433 62.3272 16.2987 62.4783 16.3053C62.6284 16.3195 62.7718 16.3409 62.9055 16.3607C63.1727 16.4018 63.3983 16.3908 63.5604 16.4128C63.7231 16.4309 63.8161 16.4407 63.8161 16.4407C63.8161 16.4407 63.7296 16.4731 63.5735 16.5214C63.4169 16.5603 63.1919 16.6519 62.9109 16.6754C62.7707 16.6903 62.6174 16.7056 62.4548 16.7138C62.291 16.7341 62.1202 16.7094 61.9416 16.6946C61.7653 16.6705 61.5758 16.6771 61.3962 16.6151C61.2139 16.5663 61.0288 16.5164 60.8442 16.4671C60.6695 16.3881 60.4948 16.3097 60.3229 16.2318C60.1455 16.1649 60.0009 16.0437 59.8497 15.9494C59.7024 15.8468 59.5551 15.7607 59.4379 15.6395C59.3153 15.5282 59.2046 15.4185 59.1044 15.3176C58.8996 15.1213 58.7912 14.9173 58.6921 14.7868C58.6012 14.6514 58.553 14.5707 58.553 14.5707Z" fill="#428716"/>
<path fill-rule="evenodd" clip-rule="evenodd" d="M64.6218 14.0609C64.6218 14.0609 64.636 14.1174 64.6525 14.2139C64.6722 14.3088 64.6771 14.4525 64.7029 14.6071C64.7253 14.7634 64.7395 14.9383 64.7675 15.1286C64.7834 15.3189 64.8217 15.5147 64.8447 15.7127C64.8852 15.9046 64.9077 16.1037 64.958 16.2808C64.986 16.368 64.9898 16.4639 65.0205 16.5429C65.0484 16.623 65.0703 16.7019 65.0895 16.7776C65.124 16.9323 65.1891 17.043 65.2138 17.1396C65.2445 17.2322 65.2592 17.2909 65.2592 17.2909C65.2592 17.2909 65.2105 17.264 65.1289 17.2076C65.0544 17.1472 64.9164 17.0732 64.8173 16.935C64.7072 16.8039 64.5824 16.6394 64.503 16.4398C64.4614 16.3406 64.4044 16.2413 64.3852 16.13C64.359 16.0208 64.3316 15.9095 64.3042 15.7988C64.2883 15.5728 64.256 15.3463 64.2867 15.1363C64.2971 14.9274 64.3431 14.7305 64.3929 14.5687C64.4323 14.4037 64.5041 14.2868 64.5451 14.1969C64.5906 14.1097 64.6218 14.0609 64.6218 14.0609Z" fill="#428716"/>
<defs>
<linearGradient id="paint0_linear_0_1771" x1="58.0564" y1="84.5948" x2="77.1361" y2="16.0232" gradientUnits="userSpaceOnUse">
<stop stop-color="white"/>
<stop offset="1" stop-color="#EDEDED"/>
</linearGradient>
<linearGradient id="paint1_linear_0_1771" x1="15.1936" y1="41.9244" x2="106.962" y2="41.9244" gradientUnits="userSpaceOnUse">
<stop stop-color="#721F11"/>
<stop offset="1" stop-color="#4F0002"/>
</linearGradient>
</defs>
</svg>
