<svg width="26" height="19" viewBox="0 0 26 19" fill="none" xmlns="http://www.w3.org/2000/svg">
<g id="KR">
<rect id="Rectangle" x="1" y="1" width="24" height="17" rx="1.75" fill="white" stroke="#F5F5F5" stroke-width="0.5"/>
<g id="Clipped">
<mask id="mask0_234_4445" style="mask-type:luminance" maskUnits="userSpaceOnUse" x="1" y="1" width="24" height="17">
<rect id="Rectangle_2" x="1.21436" y="1.2124" width="23.5714" height="16.575" rx="1.75" fill="white"/>
</mask>
<g mask="url(#mask0_234_4445)">
<g id="Group">
<path id="Path" fill-rule="evenodd" clip-rule="evenodd" d="M13.0003 13.4669C15.2091 13.4669 17.0006 11.6904 17.0006 9.49991C17.0006 7.30946 15.2091 5.53296 13.0003 5.53296C10.7914 5.53296 9 7.30946 9 9.49991C9 11.6904 10.7914 13.4669 13.0003 13.4669Z" fill="#E01B41"/>
<g id="Clipped_2">
<mask id="mask1_234_4445" style="mask-type:luminance" maskUnits="userSpaceOnUse" x="9" y="5" width="9" height="9">
<path id="Path_2" fill-rule="evenodd" clip-rule="evenodd" d="M13.0003 13.4669C15.2091 13.4669 17.0006 11.6904 17.0006 9.49991C17.0006 7.30946 15.2091 5.53296 13.0003 5.53296C10.7914 5.53296 9 7.30946 9 9.49991C9 11.6904 10.7914 13.4669 13.0003 13.4669Z" fill="white"/>
</mask>
<g mask="url(#mask1_234_4445)">
<path id="Path_3" fill-rule="evenodd" clip-rule="evenodd" d="M9 10.0667C10.1434 11.1292 11.8577 11.7667 13.0003 10.0667C14.1429 8.36675 16.4289 8.36675 17.0006 10.0667C17.5714 11.7667 17.0006 13.4667 17.0006 13.4667H9C9 13.4667 7.85743 9.00425 9 10.0667Z" fill="#0E4B9C"/>
</g>
</g>
<path id="Shape" opacity="0.75" fill-rule="evenodd" clip-rule="evenodd" d="M6.29131 4.02339C6.37016 3.88739 6.54502 3.84149 6.68131 3.91969L7.17673 4.20274C7.31302 4.28094 7.36016 4.45434 7.28131 4.58949L5.85245 7.04344C5.77359 7.17944 5.59873 7.22534 5.46245 7.14714L4.96702 6.86409C4.83073 6.78589 4.78359 6.61249 4.86245 6.47649L6.29131 4.02339ZM18.8236 4.20274C18.6873 4.28094 18.6402 4.45434 18.719 4.58949L20.1479 7.04344C20.2267 7.17944 20.4016 7.22534 20.5379 7.14714L21.0333 6.86409C21.1696 6.78589 21.2167 6.61249 21.1379 6.47649L19.709 4.02339C19.6302 3.88739 19.4553 3.84149 19.319 3.91969L18.8236 4.20274ZM17.339 5.05274C17.2027 5.13094 17.1556 5.30434 17.2344 5.43949L18.6633 7.89344C18.7422 8.02944 18.917 8.07534 19.0533 7.99714L19.5487 7.71409C19.685 7.63589 19.7322 7.46249 19.6533 7.32649L18.2244 4.87339C18.1456 4.73739 17.9707 4.69149 17.8344 4.76969L17.339 5.05274ZM4.86245 12.5234C4.78359 12.3874 4.83073 12.214 4.96702 12.1358L5.46245 11.8527C5.59873 11.7745 5.77359 11.8213 5.85245 11.9564L7.28131 14.4104C7.36016 14.5455 7.31302 14.7189 7.17673 14.7971L6.68131 15.0802C6.54502 15.1584 6.37016 15.1125 6.29131 14.9765L4.86245 12.5234ZM6.45159 11.2858C6.31531 11.364 6.26816 11.5374 6.34702 11.6734L7.77588 14.1265C7.85473 14.2625 8.02959 14.3084 8.16588 14.2302L8.66131 13.9471C8.79759 13.8689 8.84473 13.6955 8.76588 13.5604L7.33702 11.1064C7.25816 10.9713 7.08331 10.9245 6.94702 11.0027L6.45159 11.2858ZM18.6633 11.1064C18.7422 10.9713 18.917 10.9245 19.0533 11.0027L19.5487 11.2858C19.685 11.364 19.7322 11.5374 19.6533 11.6734L18.2244 14.1265C18.1456 14.2625 17.9707 14.3084 17.8344 14.2302L17.339 13.9471C17.2027 13.8689 17.1556 13.6955 17.2344 13.5604L18.6633 11.1064ZM20.5379 11.8527C20.4016 11.7745 20.2267 11.8213 20.1479 11.9564L18.719 14.4104C18.6402 14.5455 18.6873 14.7189 18.8236 14.7971L19.319 15.0802C19.4553 15.1584 19.6302 15.1125 19.709 14.9765L21.1379 12.5234C21.2167 12.3874 21.1696 12.214 21.0333 12.1358L20.5379 11.8527ZM8.16588 4.76969C8.02959 4.69149 7.85473 4.73739 7.77588 4.87339L6.34702 7.32649C6.26816 7.46249 6.31531 7.63589 6.45159 7.71409L6.94702 7.99714C7.08331 8.07534 7.25816 8.02944 7.33702 7.89344L8.76588 5.43949C8.84473 5.30434 8.79759 5.13094 8.66131 5.05274L8.16588 4.76969Z" fill="#262626"/>
</g>
</g>
</g>
</g>
</svg>
