<svg width="355" height="326" viewBox="0 0 355 326" fill="none" xmlns="http://www.w3.org/2000/svg">
<path fill-rule="evenodd" clip-rule="evenodd" d="M0 0C14.2483 4.44883 24.2426 8.5734 29.9828 12.3737C44.8757 22.2335 55.6326 36.8246 58.9633 44.0801C66.8479 61.2553 102.419 95.2377 159.918 72.7773C187.769 61.0979 238.08 21.8714 293.781 39.536C341.254 61.0979 365.464 107.178 348.88 167.171C341.254 192.869 309.584 192.869 324.775 244.287C333.312 267.171 333.312 291.092 299.172 299.178C288.391 300.076 271.321 300.975 238.08 296.482C226.4 295.584 194.057 296.482 182.378 299.178C174.592 300.975 165.907 303.071 156.324 305.467L97.0287 318.943C55.1027 327.927 22.7598 327.927 0 318.943C0 303.969 0 197.655 0 0Z" fill="#FFE7D4"/>
</svg>
