<svg width="375" height="300" viewBox="0 0 375 300" fill="none" xmlns="http://www.w3.org/2000/svg">
<path fill-rule="evenodd" clip-rule="evenodd" d="M375 0.528403C321.596 -2.55934 277.045 7.88539 241.346 31.8626C187.799 67.8284 158.451 58.4164 104.009 43.6612C49.568 28.9059 38 9.50775 0 0.528403C0 12.856 0 106.62 0 281.821C16.6973 276.615 43.0199 276.615 78.9676 281.821C132.889 289.63 149.648 268.613 158.451 265.091C164.319 262.743 194.836 250.709 250 228.989C265.845 225.381 276.115 229.448 280.81 241.188C282.57 244.711 266.725 271.255 280.81 281.821C286.092 284.463 338 284.463 375 299.774C375 276.88 375 177.132 375 0.528403Z" fill="#FFE7D4"/>
</svg>
