<svg width="327" height="141" viewBox="0 0 327 141" fill="none" xmlns="http://www.w3.org/2000/svg">
<path d="M0 20C0 8.95431 8.9543 0 20 0H327V121C327 132.046 318.046 141 307 141H20C8.9543 141 0 132.046 0 121V20Z" fill="#F28973"/>
<mask id="mask0_0_908" style="mask-type:luminance" maskUnits="userSpaceOnUse" x="0" y="0" width="327" height="141">
<path d="M0 20C0 8.95431 8.9543 0 20 0H327V121C327 132.046 318.046 141 307 141H20C8.9543 141 0 132.046 0 121V20Z" fill="white"/>
</mask>
<g mask="url(#mask0_0_908)">
<path fill-rule="evenodd" clip-rule="evenodd" d="M174.245 148.207C174.245 148.207 187.725 118.499 229.404 125.625C271.083 132.75 272.945 98.6783 287.239 87.9073C301.533 77.1363 331.361 73.9076 348.11 103.646C364.86 133.385 340.145 186.47 340.145 186.47L184.388 202.094L174.245 148.207Z" fill="#F6BDAC"/>
<path fill-rule="evenodd" clip-rule="evenodd" d="M84.9906 -1.52126C84.9906 -1.52126 82.6646 15.2448 58.2983 22.5817C33.932 29.9186 38.8109 45.7084 32.7474 54.1662C26.6839 62.6239 10.6905 71.6192 -3.76467 62.484C-18.2198 53.3489 -17.127 38.2957 -13.7156 23.2304C-10.3042 8.16515 -1.87831 -14.6218 13.0668 -22.9068C28.0118 -31.1918 70.0114 -23.1848 70.0114 -23.1848L84.9906 -1.52126Z" fill="#F6BDAC"/>
</g>
</svg>
