<svg width="24" height="24" viewBox="0 0 24 24" fill="none" xmlns="http://www.w3.org/2000/svg">
<path fill-rule="evenodd" clip-rule="evenodd" d="M22 12H2.00001C1.44773 12 1.00001 12.4477 1.00001 13C0.984711 17.2276 3.41121 21.0841 7.22901 22.9C7.3642 22.9659 7.51263 23.0001 7.66301 23H16.337C16.4874 23.0001 16.6358 22.9659 16.771 22.9C20.5888 21.0841 23.0153 17.2276 23 13C23 12.4477 22.5523 12 22 12Z" fill="#272459"/>
<path fill-rule="evenodd" clip-rule="evenodd" d="M6 10V8C6 6.67392 5.47322 5.40215 4.53553 4.46447C3.59785 3.52678 2.32608 3 1 3V5C1 6.32608 1.52678 7.59785 2.46447 8.53553C3.40215 9.47322 4.67392 10 6 10Z" fill="#272459"/>
<path fill-rule="evenodd" clip-rule="evenodd" d="M21 9.99998C20.9958 8.14482 19.7165 6.53602 17.91 6.11398C17.4543 3.56601 15.1274 1.78849 12.5493 2.01899C9.97118 2.24948 7.99646 4.41159 8 6.99998C8.00368 8.08545 8.3642 9.13959 9.026 9.99998H21Z" fill="#272459"/>
</svg>
