<svg width="24" height="24" viewBox="0 0 24 24" fill="none" xmlns="http://www.w3.org/2000/svg">
<path fill-rule="evenodd" clip-rule="evenodd" d="M23.857 5.72348L20.857 0.506087C20.6762 0.192145 20.351 6.96556e-05 20 0H4.00001C3.64902 6.96556e-05 3.32376 0.192145 3.14301 0.506087L0.143006 5.72348C0.0494962 5.88575 6.37225e-05 6.07152 6.29156e-06 6.26087C-0.00386456 8.56081 1.7789 10.429 3.98301 10.4348H3.99101C4.97875 10.4374 5.93203 10.0561 6.66501 9.36522C8.17898 10.793 10.483 10.793 11.997 9.36522C13.5117 10.7962 15.8193 10.7962 17.334 9.36522C18.5067 10.4691 20.1927 10.7478 21.635 10.0762C23.0772 9.40456 24.0043 7.90885 24 6.26087C23.9999 6.07152 23.9505 5.88575 23.857 5.72348Z" fill="white"/>
<path fill-rule="evenodd" clip-rule="evenodd" d="M20.016 12.5218C19.0864 12.5225 18.1694 12.2982 17.337 11.8665L17.322 11.8738C15.9028 12.6121 14.2598 12.7286 12.758 12.1972C12.4979 12.106 12.244 11.9965 11.998 11.8696L11.987 11.8748C10.5683 12.6137 8.92525 12.7298 7.424 12.1972C7.16422 12.106 6.91064 11.9965 6.665 11.8696C5.83409 12.3001 4.91871 12.5234 3.991 12.5218C3.65878 12.5185 3.32736 12.487 3 12.4278V22.9565C3 23.5328 3.44772 24 4 24H10V17.7392H14V24H20C20.5523 24 21 23.5328 21 22.9565V12.4237C20.6751 12.4844 20.346 12.5172 20.016 12.5218Z" fill="white"/>
</svg>
